<svg width="29" height="23" viewBox="0 0 29 23" fill="none" xmlns="http://www.w3.org/2000/svg">
<path d="M24.246 1.8385C23.82 1.41609 23.82 0.733041 24.246 0.315125C24.672 -0.102792 25.3608 -0.107285 25.7823 0.315125L28.6828 3.19111C28.8867 3.39332 29 3.66744 29 3.95504C29 4.24264 28.8867 4.51676 28.6828 4.71897L25.7823 7.59496C25.3563 8.01737 24.6674 8.01737 24.246 7.59496C23.8245 7.17255 23.82 6.4895 24.246 6.07158L25.2883 5.03803L17.4027 5.02904C16.8 5.02904 16.315 4.54821 16.315 3.95055C16.315 3.35288 16.8 2.87205 17.4027 2.87205H25.2929L24.246 1.8385ZM4.75856 16.9374L3.71621 17.971H11.6018C12.2046 17.971 12.6895 18.4518 12.6895 19.0495C12.6895 19.6471 12.2046 20.1279 11.6018 20.1279H3.71167L4.75402 21.1615C5.18003 21.5839 5.18003 22.267 4.75402 22.6849C4.32802 23.1028 3.63916 23.1073 3.21769 22.6849L0.317237 19.8134C0.113299 19.6112 0 19.3371 0 19.0495C0 18.7619 0.113299 18.4877 0.317237 18.2855L3.21769 15.4095C3.64369 14.9871 4.33255 14.9871 4.75402 15.4095C5.1755 15.8319 5.18003 16.515 4.75402 16.9329L4.75856 16.9374ZM4.35068 2.87205H15.3135C15.1458 3.1956 15.0461 3.55959 15.0461 3.95055C15.0461 5.24024 16.102 6.28728 17.4027 6.28728H22.7232C22.542 7.05122 22.7504 7.88255 23.3486 8.48022C24.2686 9.39244 25.7596 9.39244 26.6796 8.48022L27.5543 7.61293V17.252C27.5543 18.8382 26.2536 20.1279 24.6539 20.1279H13.691C13.8587 19.8044 13.9584 19.4404 13.9584 19.0495C13.9584 17.7598 12.9025 16.7127 11.6018 16.7127H6.28129C6.46257 15.9488 6.2541 15.1174 5.65588 14.5198C4.7359 13.6076 3.24488 13.6076 2.32489 14.5198L1.45023 15.3871V5.74804C1.45023 4.16175 2.7509 2.87205 4.35068 2.87205ZM7.25113 5.74804H4.35068V8.62402C5.95046 8.62402 7.25113 7.33432 7.25113 5.74804ZM24.6539 14.376C23.0541 14.376 21.7534 15.6657 21.7534 17.252H24.6539V14.376ZM14.5023 15.814C16.9042 15.814 18.8529 13.8817 18.8529 11.5C18.8529 9.11833 16.9042 7.18603 14.5023 7.18603C12.1003 7.18603 10.1516 9.11833 10.1516 11.5C10.1516 13.8817 12.1003 15.814 14.5023 15.814Z" fill="#0484D9"/>
</svg>
