<svg width="28" height="28" viewBox="0 0 28 28" fill="none" xmlns="http://www.w3.org/2000/svg">
<path d="M14 28C21.7328 28 28 21.7328 28 14C28 6.26719 21.7328 0 14 0C6.26719 0 0 6.26719 0 14C0 21.7328 6.26719 28 14 28ZM9.28594 9.03984C9.71797 7.82031 10.8773 7 12.1734 7H15.3617C17.2703 7 18.8125 8.54766 18.8125 10.4508C18.8125 11.6867 18.1508 12.8297 17.0789 13.4477L15.3125 14.4594C15.3016 15.1703 14.7164 15.75 14 15.75C13.2727 15.75 12.6875 15.1648 12.6875 14.4375V13.6992C12.6875 13.2289 12.9391 12.7969 13.3492 12.5617L15.7719 11.1727C16.0289 11.025 16.1875 10.7516 16.1875 10.4563C16.1875 9.99687 15.8156 9.63047 15.3617 9.63047H12.1734C11.9875 9.63047 11.8234 9.74531 11.7633 9.92031L11.7414 9.98594C11.5008 10.6695 10.7461 11.025 10.068 10.7844C9.38984 10.5437 9.02891 9.78906 9.26953 9.11094L9.29141 9.04531L9.28594 9.03984ZM15.75 19.25C15.75 20.218 14.968 21 14 21C13.032 21 12.25 20.218 12.25 19.25C12.25 18.282 13.032 17.5 14 17.5C14.968 17.5 15.75 18.282 15.75 19.25Z" fill="#0484D9"/>
</svg>
