<svg width="22" height="14" viewBox="0 0 22 14" fill="none" xmlns="http://www.w3.org/2000/svg">
<path d="M20.0627 4.46901C20.0483 4.45221 20.0363 4.43661 20.0195 4.41981L19.2695 3.69617C19.8911 3.55576 20.5608 3.03493 20.5608 2.4997C20.5608 1.87687 19.6979 1.65605 18.9599 1.65605C18.2218 1.65605 18.0994 2.18408 18.0898 2.5573L16.1565 0.692398C15.7641 0.303576 15.0189 -0.00244141 14.462 -0.00244141H6.9268C6.36996 -0.00244141 5.62592 0.303576 5.2323 0.692398L3.29899 2.5573C3.28939 2.18408 3.19938 1.65605 2.42894 1.65605C1.65849 1.65605 0.826847 1.87687 0.826847 2.4997C0.826847 3.03373 1.49649 3.55456 2.11812 3.69617L1.36808 4.41981C1.35128 4.43541 1.33928 4.45221 1.32488 4.46901C0.52323 5.15545 0 6.42633 0 7.34798V10.0889C0 10.755 0.262815 11.3586 0.686439 11.8086V12.8707C0.686439 13.4923 1.20727 13.9988 1.84691 13.9988H3.24979C3.88942 13.9988 4.40905 13.4923 4.40905 12.8707V12.5983H16.9786V12.8707C16.9786 13.4935 17.4982 13.9988 18.139 13.9988H19.5419C20.1828 13.9988 20.7024 13.4923 20.7024 12.8707V11.8086C21.126 11.3586 21.3888 10.755 21.3888 10.0889V7.34798C21.3888 6.42513 20.8656 5.15425 20.0639 4.46901H20.0627ZM5.94274 1.52285C6.21516 1.29603 6.69038 1.12442 6.9268 1.12442H14.462C14.6996 1.12442 15.1749 1.29603 15.4461 1.52285L17.9818 3.98059H3.40699L5.94274 1.52285ZM0.87005 6.93395C0.87005 6.25952 1.39808 5.71108 2.05092 5.71108C2.70375 5.71108 4.83268 6.96156 4.83268 7.63599C4.83268 8.31043 2.70255 8.15442 2.05092 8.15442C1.39928 8.15442 0.87005 7.60839 0.87005 6.93275V6.93395ZM4.41025 11.3982H3.96023L2.62695 11.4006C2.25733 11.2854 1.99571 11.151 1.8109 11.007C1.7173 10.9338 1.64649 10.8582 1.59009 10.7826C1.53369 10.707 1.49289 10.6314 1.46648 10.557C1.30087 10.0877 1.64289 9.65691 1.64289 9.65691H3.91942L5.43631 11.3982H4.41025ZM13.9676 11.3994H7.42122C6.73838 11.3994 6.18515 10.8462 6.18515 10.1633H15.2025C15.2025 10.8462 14.648 11.3994 13.9664 11.3994H13.9676ZM14.2544 9.32089H7.13441C6.39277 9.32089 5.79033 8.40644 5.79033 7.27717H15.5985C15.5985 8.40644 14.9961 9.32089 14.2544 9.32089ZM19.9235 10.557C19.8959 10.6326 19.8551 10.707 19.7987 10.7826C19.7435 10.8582 19.6715 10.9338 19.5779 11.007C19.3943 11.151 19.1327 11.2866 18.7619 11.4006L17.4286 11.3982H15.9525L17.4706 9.65691H19.7459C19.7459 9.65691 20.0891 10.0865 19.9235 10.5558V10.557ZM19.3391 8.15682C18.6875 8.15682 16.5585 8.31163 16.5585 7.6384C16.5585 6.96516 18.6887 5.71349 19.3391 5.71349C19.9895 5.71349 20.52 6.26072 20.52 6.93635C20.52 7.61199 19.9919 8.15802 19.3391 8.15802V8.15682Z" fill="#43B4FF"/>
</svg>
