<svg width="24" height="24" viewBox="0 0 24 24" fill="none" xmlns="http://www.w3.org/2000/svg">
<path d="M7.72969 1.15253C7.36875 0.280659 6.41719 -0.183404 5.50781 0.065034L1.38281 1.19003C0.567188 1.41503 0 2.15566 0 2.99941C0 14.5963 9.40313 23.9994 21 23.9994C21.8438 23.9994 22.5844 23.4322 22.8094 22.6166L23.9344 18.4916C24.1828 17.5822 23.7188 16.6307 22.8469 16.2697L18.3469 14.3947C17.5828 14.076 16.6969 14.2963 16.1766 14.9385L14.2828 17.2494C10.9828 15.6885 8.31094 13.0166 6.75 9.7166L9.06094 7.82753C9.70312 7.30253 9.92344 6.42128 9.60469 5.65722L7.72969 1.15722V1.15253Z" fill="#EFEFEF"/>
</svg>
