<svg width="24" height="18" viewBox="0 0 24 18" fill="none" xmlns="http://www.w3.org/2000/svg">
<path d="M2.25 -0.000610352C1.00781 -0.000610352 0 1.0072 0 2.24939C0 2.9572 0.332813 3.62283 0.9 4.04939L11.1 11.6994C11.6344 12.0978 12.3656 12.0978 12.9 11.6994L23.1 4.04939C23.6672 3.62283 24 2.9572 24 2.24939C24 1.0072 22.9922 -0.000610352 21.75 -0.000610352H2.25ZM0 5.24939V14.9994C0 16.6541 1.34531 17.9994 3 17.9994H21C22.6547 17.9994 24 16.6541 24 14.9994V5.24939L13.8 12.8994C12.7312 13.701 11.2688 13.701 10.2 12.8994L0 5.24939Z" fill="#EFEFEF"/>
</svg>
