<svg width="14" height="16" viewBox="0 0 14 16" fill="none" xmlns="http://www.w3.org/2000/svg">
<path d="M13.7947 13.8847L10.1271 10.217C10.9208 9.25905 11.3588 8.02738 11.3588 6.68622C11.3588 3.56599 8.78592 0.993164 5.66569 0.993164C2.51808 0.993164 0 3.56599 0 6.68622C0 9.83383 2.54545 12.3793 5.66569 12.3793C6.97947 12.3793 8.21114 11.9414 9.19648 11.1476L12.8641 14.8153C13.001 14.9521 13.1652 15.0068 13.3568 15.0068C13.521 15.0068 13.6852 14.9521 13.7947 14.8153C14.0684 14.5689 14.0684 14.1584 13.7947 13.8847ZM1.31378 6.68622C1.31378 4.27762 3.25709 2.30695 5.69306 2.30695C8.10166 2.30695 10.0723 4.27762 10.0723 6.68622C10.0723 9.1222 8.10166 11.0655 5.69306 11.0655C3.25709 11.0655 1.31378 9.1222 1.31378 6.68622Z" fill="white"/>
</svg>
