<svg width="32" height="26" viewBox="0 0 32 26" fill="none" xmlns="http://www.w3.org/2000/svg">
<path d="M32 3.08936C30.8232 3.59699 29.5426 3.96233 28.2235 4.10462C29.593 3.29101 30.6186 2.00564 31.1078 0.48967C29.8227 1.25415 28.4149 1.79022 26.9468 2.07409C26.3332 1.41812 25.591 0.895544 24.7666 0.538923C23.9423 0.182303 23.0532 -0.000716942 22.155 0.00126718C18.5209 0.00126718 15.5981 2.94707 15.5981 6.56202C15.5981 7.06965 15.6597 7.57728 15.7596 8.06568C10.318 7.7811 5.46473 5.18141 2.23819 1.20112C1.65028 2.20529 1.3422 3.34866 1.34599 4.51226C1.34599 6.78891 2.50355 8.79636 4.26872 9.97699C3.22847 9.93602 2.21259 9.6501 1.30369 9.14248V9.22324C1.30369 12.4113 3.55727 15.0533 6.56075 15.6609C5.99681 15.8074 5.41668 15.8823 4.83403 15.884C4.40716 15.884 4.00336 15.8417 3.59572 15.784C4.42639 18.3837 6.84533 20.2719 9.72575 20.3334C7.47218 22.0986 4.64944 23.1369 1.58443 23.1369C1.03449 23.1369 0.52686 23.1177 0 23.0562C2.90734 24.9214 6.35693 25.9981 10.0719 25.9981C22.132 25.9981 28.7312 16.007 28.7312 7.335C28.7312 7.05042 28.7312 6.76584 28.7119 6.48126C29.9887 5.54675 31.1078 4.3892 32 3.08936Z" fill="#EFEFEF"/>
</svg>
