<svg width="24" height="25" viewBox="0 0 24 25" fill="none" xmlns="http://www.w3.org/2000/svg">
<path d="M20.4054 4.22886C18.1607 1.96689 15.1714 0.722809 11.9946 0.722809C5.4375 0.722809 0.101786 6.0869 0.101786 12.6789C0.101786 14.7847 0.648214 16.842 1.6875 18.657L0 24.8505L6.30536 23.1863C8.04107 24.1396 9.99643 24.6404 11.9893 24.6404H11.9946C18.5464 24.6404 24 19.2763 24 12.6843C24 9.49063 22.65 6.49083 20.4054 4.22886ZM11.9946 22.6262C10.2161 22.6262 8.475 22.1469 6.95893 21.2421L6.6 21.0267L2.86071 22.0122L3.85714 18.3446L3.62143 17.9676C2.63036 16.3842 2.11071 14.5585 2.11071 12.6789C2.11071 7.20173 6.54643 2.74242 12 2.74242C14.6411 2.74242 17.1214 3.77647 18.9857 5.65605C20.85 7.53564 21.9964 10.0292 21.9911 12.6843C21.9911 18.1669 17.4429 22.6262 11.9946 22.6262ZM17.4161 15.1832C17.1214 15.0324 15.6589 14.3108 15.3857 14.2138C15.1125 14.1115 14.9143 14.063 14.7161 14.3646C14.5179 14.6662 13.95 15.334 13.7732 15.5387C13.6018 15.738 13.425 15.7649 13.1304 15.6141C11.3839 14.7362 10.2375 14.0469 9.08571 12.0596C8.78036 11.5318 9.39107 11.5695 9.95893 10.4277C10.0554 10.2285 10.0071 10.0561 9.93214 9.90532C9.85714 9.75452 9.2625 8.28425 9.01607 7.68644C8.775 7.10479 8.52857 7.18557 8.34643 7.1748C8.175 7.16403 7.97679 7.16403 7.77857 7.16403C7.58036 7.16403 7.25893 7.23943 6.98571 7.53564C6.7125 7.83724 5.94643 8.55891 5.94643 10.0292C5.94643 11.4995 7.0125 12.9213 7.15714 13.1205C7.30714 13.3198 9.25179 16.3358 12.2357 17.6337C14.1214 18.4523 14.8607 18.5223 15.8036 18.3823C16.3768 18.2961 17.5607 17.6606 17.8071 16.9605C18.0536 16.2604 18.0536 15.6626 17.9786 15.5387C17.9089 15.4041 17.7107 15.3287 17.4161 15.1832Z" fill="#EFEFEF"/>
</svg>
