<svg width="32" height="24" viewBox="0 0 32 24" fill="none" xmlns="http://www.w3.org/2000/svg">
<path d="M31.6253 5.48005C31.8751 7.26976 32 9.0339 32 10.7725V13.2269L31.6253 18.5194C31.4254 20.0023 31.0008 21.0761 30.3513 21.7408C29.6518 22.4567 28.6027 22.9169 27.2037 23.1215C25.8548 23.2237 24.2311 23.3004 22.3326 23.3516C20.484 23.4027 18.9602 23.4283 17.7611 23.4283H15.9625C10.4169 23.3771 6.79469 23.2749 5.09602 23.1215C5.09602 23.1215 4.89617 23.0959 4.49649 23.0448C4.0968 22.9936 3.77205 22.9425 3.52225 22.8914C3.27244 22.8402 2.9477 22.7124 2.54801 22.5079C2.19828 22.3033 1.87354 22.0476 1.57377 21.7408C1.32397 21.434 1.07416 21.025 0.824356 20.5136C0.624512 19.9511 0.49961 19.4653 0.449649 19.0563L0.299766 18.5194C0.0999219 16.7297 0 14.9655 0 13.2269V10.7725L0.299766 5.48005C0.49961 3.99715 0.924278 2.92333 1.57377 2.25858C2.27322 1.49156 3.34738 1.03135 4.79625 0.877944C6.1452 0.775675 7.74395 0.698973 9.59251 0.647838C11.4411 0.596704 12.9649 0.571136 14.1639 0.571136H15.9625C20.459 0.571136 24.2061 0.673406 27.2037 0.877944C28.6027 1.03135 29.6518 1.49156 30.3513 2.25858C30.5511 2.46311 30.726 2.71879 30.8759 3.02559C31.0258 3.28127 31.1507 3.56251 31.2506 3.86931C31.3505 4.12499 31.4254 4.38066 31.4754 4.63633C31.5254 4.892 31.5753 5.09654 31.6253 5.24995V5.48005ZM20.3091 12.2298L21.3583 11.6929L12.74 7.09079V16.295L20.3091 12.2298Z" fill="#EFEFEF"/>
</svg>
