<svg viewBox="0 0 375 850" fill="none" xmlns="http://www.w3.org/2000/svg">
<path d="M363.992 739.434L370.206 774.175L446.32 752.094L437.952 733.654L429.817 724.434L363.992 739.434Z" stroke="white" stroke-linejoin="round"/>
<path d="M370.639 778.886L449.109 762.383L456.826 815.115L375.784 823.916L370.639 778.886Z" stroke="white" stroke-linejoin="round"/>
<path d="M337.272 808.121L364.007 802.124L369.874 823.916C369.874 823.916 353.342 827.731 346.145 821.98C338.949 816.228 337.287 808.121 337.287 808.121H337.272Z" stroke="white" stroke-linejoin="round"/>
<path d="M310.537 806.69L340.552 832.557H274.669L310.537 806.69Z" stroke="white" stroke-linejoin="round"/>
<path d="M362.562 782.383L319.686 792.528C319.686 792.528 322.966 799.536 328.689 801.386C337.273 804.175 363.993 793.814 363.993 793.814L362.562 782.383Z" stroke="white" stroke-linejoin="round"/>
<path d="M280.956 745.23L317.402 785.1L361.853 775.1L356.564 745.23C356.564 745.23 331.217 749.204 322.691 749.305C312.214 749.421 280.956 745.23 280.956 745.23V745.23Z" stroke="white" stroke-linejoin="round"/>
<path d="M290.812 768.235L276.086 786.82H311.39L290.812 768.235Z" stroke="white" stroke-linejoin="round"/>
<path d="M264.511 742.079L220.059 782.383L269.236 786.819L287.936 764.449L264.511 742.079Z" stroke="white" stroke-linejoin="round"/>
<path d="M223.787 794.826L298.239 798.973L247.79 837.413L223.787 794.826Z" stroke="white" stroke-linejoin="round"/>
<path d="M226.489 820.404L239.51 846.705L180.188 850L226.489 820.404Z" stroke="white" stroke-linejoin="round"/>
<path d="M144.177 798.829L216.49 797.109L225.638 813.973L164.322 844.985L144.177 798.829Z" stroke="white" stroke-linejoin="round"/>
<path d="M116.3 793.25H137.457L136.879 819.624L116.3 793.25Z" stroke="white" stroke-linejoin="round"/>
<path d="M75.418 793.251L99.0022 790.679L131.17 824.985L102.716 837.413L75.418 830.13V793.251Z" stroke="white" stroke-linejoin="round"/>
<path d="M32.1084 790.678L61.7043 789.97V823.844H36.2559L32.1084 790.678Z" stroke="white" stroke-linejoin="round"/>
<path d="M-22.0552 790.679L19.9687 791.676L26.5439 823.844H-22.0552V790.679Z" stroke="white" stroke-linejoin="round"/>
<path d="M6.3851 774.392H-20.7686V782.962H6.3851V774.392Z" stroke="white" stroke-linejoin="round"/>
<path d="M20.5314 764.233H10.0977V782.961H20.5314V764.233Z" stroke="white" stroke-linejoin="round"/>
<path d="M6.38557 761.241V769.377H-20.7681L-25.0601 730.937L6.38557 761.241Z" stroke="white" stroke-linejoin="round"/>
<path d="M-20.7686 725.215L10.099 760.375H17.1078L12.8158 724.652L-20.7686 725.215Z" stroke="white" stroke-linejoin="round"/>
<path d="M11.3857 693.769V719.651L-23.9183 721.356L-25.7681 695.633L11.3857 693.769Z" stroke="white" stroke-linejoin="round"/>
<path d="M7.38229 670.141L10.6772 686.341H-22.0546L-27.1992 671.196L7.38229 670.141Z" stroke="white" stroke-linejoin="round"/>
<path d="M-32.4888 596.224L2.74305 581.859L6.38474 663.552H-28.1245L-32.4888 596.224Z" stroke="white" stroke-linejoin="round"/>
<path d="M-38.9478 567.799L-34.5546 591.296L17.5417 569.851L11.9635 544.995L-38.9478 567.799Z" stroke="white" stroke-linejoin="round"/>
<path d="M6.38477 595.718H22.8301L41.9778 768.091L66.3569 769.29L65.9956 782.961H25.4024L6.38477 595.718Z" stroke="white" stroke-linejoin="round"/>
<path d="M42.729 726.718L66.7323 725.012L65.634 762.6L46.125 762.484L42.729 726.718Z" stroke="white" stroke-linejoin="round"/>
<path d="M35.9653 644.245L68.2925 642.179L66.9052 719.723L41.977 721.356L35.9653 644.245Z" stroke="white" stroke-linejoin="round"/>
<path d="M17.874 542.047L65.9818 520.197L68.6408 635.445L34.4783 637.815L17.874 542.047Z" stroke="white" stroke-linejoin="round"/>
<path d="M81.6596 698.495H86.1395V715.851L131.169 778.67L81.2983 782.904L81.6596 698.495Z" stroke="white" stroke-linejoin="round"/>
<path d="M92.3564 701.067L128.383 696.688L159.901 742.513L131.172 766.241L92.3564 717.353V701.067Z" stroke="white" stroke-linejoin="round"/>
<path d="M134.379 770.736L169.322 752.947L209.843 782.962L141.46 782.384L134.379 770.736Z" stroke="white" stroke-linejoin="round"/>
<path d="M190.767 761.313H207.487L228.282 767.961L214.568 780.822L190.767 761.313Z" stroke="white" stroke-linejoin="round"/>
<path d="M203.844 752.947L252.935 733.655L261.938 738.799L232.891 765.173L203.844 752.947Z" stroke="white" stroke-linejoin="round"/>
<path d="M249.943 730.012L184.899 751.877L227.371 717.324L249.943 730.012Z" stroke="white" stroke-linejoin="round"/>
<path d="M171.258 744.551L178.324 751.877L222.357 714.825L211.085 707.252L171.258 744.551Z" stroke="white" stroke-linejoin="round"/>
<path d="M203.845 702.772L163.757 736.443L89.5654 621.745L203.845 702.772Z" stroke="white" stroke-linejoin="round"/>
<path d="M82.7139 624.953V693.769L124.405 690.229L82.7139 624.953Z" stroke="white" stroke-linejoin="round"/>
<path d="M80.563 602.235L144.162 595.877L147.674 637.814L144.249 653.046L80.563 612.727V602.235Z" stroke="white" stroke-linejoin="round"/>
<path d="M159.897 660.618L253.367 724.926V693.769L232.89 687.916L252.515 659.361L159.897 660.618Z" stroke="white" stroke-linejoin="round"/>
<path d="M262.517 659.361H315.682L349.137 684.202V695.055L240.219 686.052L262.517 659.361Z" stroke="white" stroke-linejoin="round"/>
<path d="M259.092 696.776V721.01H328.544L349.137 700.345L259.092 696.776Z" stroke="white" stroke-linejoin="round"/>
<path d="M289.238 726.79V740.519L261.015 732.513V728.221L289.238 726.79Z" stroke="white" stroke-linejoin="round"/>
<path d="M327.259 725.793V740.519L295.394 739.796V724.926L327.259 725.793Z" stroke="white" stroke-linejoin="round"/>
<path d="M350.841 707.642L332.69 724.435V738.221H354.555L350.841 707.642Z" stroke="white" stroke-linejoin="round"/>
<path d="M354.555 677.208L433.675 673.624V716.501L363.992 729.796L354.555 677.208Z" stroke="white" stroke-linejoin="round"/>
<path d="M347.057 654.535L433.677 661.182L360.135 668.263L347.057 654.535Z" stroke="white" stroke-linejoin="round"/>
<path d="M336.548 577.568L387.358 575.863V643.393H355.638L336.548 577.568Z" stroke="white" stroke-linejoin="round"/>
<path d="M247.299 623.176L332.69 620.242L336.549 643.393H246.403L247.299 623.176Z" stroke="white" stroke-linejoin="round"/>
<path d="M246.217 596.6L247.113 613.667L326.045 610.372L322.837 594.505L246.217 596.6Z" stroke="white" stroke-linejoin="round"/>
<path d="M152.384 595.718H236.894L234.929 643.392H156.242L152.384 595.718Z" stroke="white" stroke-linejoin="round"/>
<path d="M101.155 570.935L99.2183 590.646L235.362 588.941L232.573 570.935H101.155Z" stroke="white" stroke-linejoin="round"/>
<path d="M242.431 567.712L245.437 590.646L304.816 588.074L242.431 567.712Z" stroke="white" stroke-linejoin="round"/>
<path d="M78.5703 517.971C78.5703 517.971 139.279 504.416 159.901 502.827C176.823 501.512 227.793 504.821 227.793 504.821L229.512 563.998H95.1602L92.5879 584.577L80.579 589.432L78.5848 517.971H78.5703Z" stroke="white" stroke-linejoin="round"/>
<path d="M235.364 500.529L311.261 495.11L317.258 529.691L248.861 532.264L250.653 562.134H240.219L235.364 500.529Z" stroke="white" stroke-linejoin="round"/>
<path d="M254.944 535.125H276.303L277.806 564.287L257.227 559.706L254.944 535.125Z" stroke="white" stroke-linejoin="round"/>
<path d="M283.241 535.125H317.259L326.045 589.432L283.241 573.709V535.125Z" stroke="white" stroke-linejoin="round"/>
<path d="M41.6887 432.218L23.3936 434.502L32.5411 395.628L41.6887 432.218Z" stroke="white" stroke-linejoin="round"/>
<path d="M41.6893 437.927L43.12 450.514L32.5417 451.945V468.52L17.5415 466.8L23.3942 441.077L41.6893 437.927Z" stroke="white" stroke-linejoin="round"/>
<path d="M35.9653 455.658V465.947L47.9742 464.517L43.1186 455.658H35.9653Z" stroke="white" stroke-linejoin="round"/>
<path d="M17.541 472.523L50.5474 468.52L62.2672 504.532L19.5208 524.532L6.38477 513.405L17.541 472.523Z" stroke="white" stroke-linejoin="round"/>
<path d="M-45.4937 528.622L-41.6497 552.221L12.2964 527.596L5.53323 521.613L-26.0858 523.116L-45.4937 528.622Z" stroke="white" stroke-linejoin="round"/>
<path d="M-106.708 459.083L-100.09 467.089H-56.6498L-50.0746 523.838L-23.051 517.971L-4.33677 518.116L17.5422 444.791L-106.708 459.083Z" stroke="white" stroke-linejoin="round"/>
<path d="M-36.4917 414.487L-17.055 413.345V391.192L26.3995 382.622L27.2522 398.345L16.1104 436.511L-33.9194 441.93L-36.4917 414.487Z" stroke="white" stroke-linejoin="round"/>
<path d="M-73.7893 288.068L44.1029 298.14L23.3944 374.977L-37.9939 393.417L-101.449 402.058L-73.7893 288.068Z" stroke="white" stroke-linejoin="round"/>
<path d="M-77.1279 270.366L-0.0456869 279.846L-13.9765 240.553L-77.1279 270.366Z" stroke="white" stroke-linejoin="round"/>
<path d="M0.387207 260.062H35.7636L29.6074 284.051L10.1417 281.291L0.387207 260.062Z" stroke="white" stroke-linejoin="round"/>
<path d="M38.3369 260.062H55.0568L44.2908 286.147L33.2935 284.586L38.3369 260.062Z" stroke="white" stroke-linejoin="round"/>
<path d="M13.2493 219.961L-10.335 233.689L-3.05159 251.478L49.695 256.204L55.0563 226.189L13.2493 219.961Z" stroke="white" stroke-linejoin="round"/>
<path d="M5.09912 192.951L61.0538 200.032L55.0566 218.891L12.1802 213.746L5.09912 192.951Z" stroke="white" stroke-linejoin="round"/>
<path d="M9.17349 158.442L0.387207 187.171H57.6281L61.053 172.156L9.17349 158.442Z" stroke="white" stroke-linejoin="round"/>
<path d="M22.3528 120.493L67.9171 124.352L57.6279 166.578L13.4653 154.15L22.3528 120.493Z" stroke="white" stroke-linejoin="round"/>
<path d="M8.24917 216.102L-173.56 308.445L-197 256.204L-139.831 208.963L-6.332 187.171L8.24917 216.102Z" stroke="white" stroke-linejoin="round"/>
<path d="M65.1295 114.337L5.09961 116.057L3.66895 76.8942L69.4215 80.0445L65.1295 114.337Z" stroke="white" stroke-linejoin="round"/>
<path d="M36.5439 22.5148L61.053 0L87.6431 19.7258L78.64 56.1715L61.053 69.4665L36.5439 22.5148Z" stroke="white" stroke-linejoin="round"/>
<path d="M27.613 22.2983L16.2544 53.5995L36.5438 64.1054L50.9804 57.8914L27.613 22.2983Z" stroke="white" stroke-linejoin="round"/>
<path d="M20.7494 20.7948L-7.97942 12.6444L-10.335 57.0238L2.30976 62.1684L20.7494 20.7948Z" stroke="white" stroke-linejoin="round"/>
<path d="M96.2853 10.5778L87.6436 50.0293L121.734 22.2976L96.2853 10.5778Z" stroke="white" stroke-linejoin="round"/>
<path d="M85.9952 53.7441L114.579 50.0302L124.594 62.1691L80.8506 86.8949L85.9952 53.7441Z" stroke="white" stroke-linejoin="round"/>
<path d="M121.733 72.8909L134.016 68.4689L159.653 95.478L146.025 116.056H131.169L121.733 72.8909Z" stroke="white" stroke-linejoin="round"/>
<path d="M111.719 74.9003L88.8569 88.6144L121.733 101.187L111.719 74.9003Z" stroke="white" stroke-linejoin="round"/>
<path d="M78.8564 93.4701V118.629L121.733 111.202L78.8564 93.4701Z" stroke="white" stroke-linejoin="round"/>
<path d="M74.277 124.352L72.2827 164.945L128.599 131.491V121.491L74.277 124.352Z" stroke="white" stroke-linejoin="round"/>
<path d="M135.447 124.063L158.034 116.057L171.517 97.9493L191.749 119.351L135.447 132.068V124.063Z" stroke="white" stroke-linejoin="round"/>
<path d="M120.13 38.4255L143.743 21.1564L177.761 68.4693L160.868 75.796L120.13 38.4255Z" stroke="white" stroke-linejoin="round"/>
<path d="M151.459 12.6444L204.336 16.8641L179.754 59.177L151.459 12.6444Z" stroke="white" stroke-linejoin="round"/>
<path d="M206.344 32.5868L250.074 51.7345L206.344 107.487L175.361 81.894L206.344 32.5868Z" stroke="white" stroke-linejoin="round"/>
<path d="M256.086 30.3038L246.65 45.7376L210.349 27.7315L218.918 14.0029L256.086 30.3038Z" stroke="white" stroke-linejoin="round"/>
<path d="M262.371 14.0028L258.657 24.581L234.351 12.6444L262.371 14.0028Z" stroke="white" stroke-linejoin="round"/>
<path d="M326.693 42.0236L261.229 45.7375L273.238 21.1562L336.693 18.6128L326.693 42.0236Z" stroke="white" stroke-linejoin="round"/>
<path d="M328.688 50.0302L251.794 56.0274L222.631 99.7709L264.655 143.211L295.248 134.641L298.962 143.543L336.694 138.066L328.688 50.0302Z" stroke="white" stroke-linejoin="round"/>
<path d="M220.998 104.842L213.671 113.325L259.365 160.681L282.632 154.684V146.751L288.311 141.606L259.582 146.649L220.998 104.842Z" stroke="white" stroke-linejoin="round"/>
<path d="M267.229 172.084L336.696 157.503L348.126 204.108L315.539 212.967L267.229 172.084Z" stroke="white" stroke-linejoin="round"/>
<path d="M407.866 139.786L417.881 188.096L355.567 202.099L344.7 153.789L407.866 139.786Z" stroke="white" stroke-linejoin="round"/>
<path d="M322.691 219.541L402.158 199.238L412.476 237.186L396.825 278.907L322.691 219.541Z" stroke="white" stroke-linejoin="round"/>
<path d="M369.57 108.918L372.143 126.057L342.764 132.763V112.343L369.57 108.918Z" stroke="white" stroke-linejoin="round"/>
<path d="M333.761 50.0295L357.461 44.1624L372.143 18.6128L381.29 96.7789L341.478 104.843L333.761 50.0295Z" stroke="white" stroke-linejoin="round"/>
<path d="M344.699 19.7258H366.13L352.416 39.2348L336.693 41.5904L344.699 19.7258Z" stroke="white" stroke-linejoin="round"/>
<path d="M67.918 185.234C67.918 185.234 78.1638 172.401 82.5714 169.222C126.589 137.487 195.839 123.629 195.839 123.629L178.917 177.806L165.477 183.24L67.9324 185.234H67.918Z" stroke="white" stroke-linejoin="round"/>
<path d="M129.666 194.454L160.1 188.457L170.187 205.928L166.748 224.252L130.548 217.822L129.666 194.454Z" stroke="white" stroke-linejoin="round"/>
<path d="M124.725 192.951V217.186L100.432 212.966L86.1401 188.457L124.725 192.951Z" stroke="white" stroke-linejoin="round"/>
<path d="M67.918 188.457H77.1378L93.641 217.186L88.2796 237.114L61.0537 233.906L67.918 188.457Z" stroke="white" stroke-linejoin="round"/>
<path d="M98.1504 217.186L124.726 222.114L117.226 263.487L58.063 257.707L59.985 240.553L93.6416 244.412L98.1504 217.186Z" stroke="white" stroke-linejoin="round"/>
<path d="M128.598 223.183L124.725 263.487H155.39L165.68 229.613L128.598 223.183Z" stroke="white" stroke-linejoin="round"/>
<path d="M193.195 202.821L177.905 212.966L171.258 224.252L208.773 230.683V224.252L193.195 202.821Z" stroke="white" stroke-linejoin="round"/>
<path d="M200.667 128.687L188.832 179.02L193.442 185.234L225.278 177.3L230.856 185.234L196.347 188.456L218.428 231.969L259.946 225.09L252.879 183.326L200.667 128.687Z" stroke="white" stroke-linejoin="round"/>
<path d="M198.917 238.082L260.653 229.614L270.739 270.135L195.695 267.563L198.917 238.082Z" stroke="white" stroke-linejoin="round"/>
<path d="M193.194 236.045L170.188 229.614L163.324 263.487L190.015 267.996L193.194 236.045Z" stroke="white" stroke-linejoin="round"/>
<path d="M58.0617 267.997H96.863L91.2559 292.809L56.6455 287.896L58.0617 267.997Z" stroke="white" stroke-linejoin="round"/>
<path d="M101.576 270.135L117.877 271.103L112.732 295.858L95.7378 293.444L101.576 270.135Z" stroke="white" stroke-linejoin="round"/>
<path d="M121.951 272.606H152.385L149.928 295.858H121.951V272.606Z" stroke="white" stroke-linejoin="round"/>
<path d="M163.325 271.103L157.53 295.858H186.693L190.016 276.132L163.325 271.103Z" stroke="white" stroke-linejoin="round"/>
<path d="M195.694 276.999L193.194 295.858H220.348L225.926 276.999H195.694Z" stroke="white" stroke-linejoin="round"/>
<path d="M230.421 276.999H270.739L274.381 295.858H227.646L230.421 276.999Z" stroke="white" stroke-linejoin="round"/>
<path d="M293.745 217.72L260.348 190.104L268.224 236.116L293.745 217.72Z" stroke="white" stroke-linejoin="round"/>
<path d="M301.751 224.339L274.381 245.554L299.107 276.999L337.287 253.718L301.751 224.339Z" stroke="white" stroke-linejoin="round"/>
<path d="M342.172 257.75L356.189 269.34L328.4 295.857H312.113L303.674 283.718L342.172 257.75Z" stroke="white" stroke-linejoin="round"/>
<path d="M275.479 259.079L280.985 295.857L304.396 295.698L275.479 259.079Z" stroke="white" stroke-linejoin="round"/>
<path d="M363.298 275.221L339.483 297.028L372.851 300.54L386.94 294.759L363.298 275.221Z" stroke="white" stroke-linejoin="round"/>
<path d="M375.25 314.745L338.92 314.673L341.406 335.453L376.999 334.601L375.25 314.745Z" stroke="white" stroke-linejoin="round"/>
<path d="M392.576 378.475L363.559 396.336V409.342L408.299 405.065L392.576 378.475Z" stroke="white" stroke-linejoin="round"/>
<path d="M344.555 340.743H375.148L390.582 372.752L361.853 388.62L361.202 378.475L344.555 340.743Z" stroke="white" stroke-linejoin="round"/>
<path d="M289.959 342.737L335.552 340.165L355.134 383.042L296.953 386.047L289.959 342.737Z" stroke="white" stroke-linejoin="round"/>
<path d="M284.525 315.728L287.95 335.41L334.093 334.139L334.815 314.745L284.525 315.728Z" stroke="white" stroke-linejoin="round"/>
<path d="M358.212 389.978V409.342L303.529 411.308L298.602 393.908L358.212 389.978Z" stroke="white" stroke-linejoin="round"/>
<path d="M325.826 416.134L359.497 441.438L357.778 416.134H325.826Z" stroke="white" stroke-linejoin="round"/>
<path d="M303.746 419.675H318.009L345.668 442.941H308.89L303.746 419.675Z" stroke="white" stroke-linejoin="round"/>
<path d="M315.538 450.542L352.634 448.086L370.322 458.158L374.397 474.025L319.18 479.705L315.538 450.542Z" stroke="white" stroke-linejoin="round"/>
<path d="M365.063 416.134L367.101 446.583L414.92 441.438V414.53L365.063 416.134Z" stroke="white" stroke-linejoin="round"/>
<path d="M322.545 487.956L374.396 481.958L378.717 535.124L444.18 526.555L446.175 559.416L331.838 572.422L322.545 487.956Z" stroke="white" stroke-linejoin="round"/>
<path d="M56.7773 299.818V308.445L130.521 333.171L135.854 316.35H126.995L56.7773 299.818Z" stroke="white" stroke-linejoin="round"/>
<path d="M146.864 329.457L218.224 328.893L215.955 316.35L150.015 316.407L146.864 329.457Z" stroke="white" stroke-linejoin="round"/>
<path d="M221.113 316.35L223.642 328.445L281.895 328.358L279.452 315.627L221.113 316.35Z" stroke="white" stroke-linejoin="round"/>
<path d="M52.0496 313.011L34.3325 378.836L59.5497 484.315L52.0496 313.011Z" stroke="white" stroke-linejoin="round"/>
<path d="M73.4951 319.875L64.6943 354.601L89.1456 352.246L109.29 363.821L133.525 357.39L134.089 342.289L73.4951 319.875Z" stroke="white" stroke-linejoin="round"/>
<path d="M62.2676 360.613L87.427 358.677L135.231 382.622L146.994 488.087L69.8544 500.182L62.2676 360.613Z" stroke="white" stroke-linejoin="round"/>
<path d="M141.46 380.758L220.999 366.393L222.906 482.797L151.634 487.609L141.46 380.758Z" stroke="white" stroke-linejoin="round"/>
<path d="M140.376 342.202V369.833L197.198 363.113V349.037L152.385 347.751L140.376 342.202Z" stroke="white" stroke-linejoin="round"/>
<path d="M202.342 351.813V361.466H217.992V352.68L202.342 351.813Z" stroke="white" stroke-linejoin="round"/>
<path d="M111.865 367.608L133.527 363.33V376.611L111.865 367.608Z" stroke="white" stroke-linejoin="round"/>
<path d="M227.92 349.168V359.602L268.065 348.359L227.92 349.168Z" stroke="white" stroke-linejoin="round"/>
<path d="M229.206 363.113L250.507 358.041L258.657 391.191L229.928 392.189L229.206 363.113Z" stroke="white" stroke-linejoin="round"/>
<path d="M257.661 358.041L267.661 356.032L270.811 388.056H264.236L257.661 358.041Z" stroke="white" stroke-linejoin="round"/>
<path d="M229.206 397.203L260.377 396.061L262.226 413.923H230.362L229.206 397.203Z" stroke="white" stroke-linejoin="round"/>
<path d="M266.231 396.77H274.801L279.526 413.923H265.653L266.231 396.77Z" stroke="white" stroke-linejoin="round"/>
<path d="M233.064 420.918H260.507L262.226 446.077H233.642L233.064 420.918Z" stroke="white" stroke-linejoin="round"/>
<path d="M267.372 420.918H281.245L279.525 434.502L284.381 443.649L267.372 445.08V420.918Z" stroke="white" stroke-linejoin="round"/>
<path d="M234.077 455.369L263.369 449.646V470.239L235.363 472.233L234.077 455.369Z" stroke="white" stroke-linejoin="round"/>
<path d="M236.648 475.947L267.371 474.242V481.959L236.648 482.667V475.947Z" stroke="white" stroke-linejoin="round"/>
<path d="M270.521 450.369L286.518 449.646V455.369L292.675 466.944L270.521 469.098V450.369Z" stroke="white" stroke-linejoin="round"/>
<path d="M270.521 474.243L292.097 471.67L297.53 480.529L270.521 481.092V474.243Z" stroke="white" stroke-linejoin="round"/>
<path d="M-150.641 404.992H-113.097L-79.8302 279.137L-0.898177 287.721L53.4814 292.216L127.905 308.444H374.397L396.334 297.144L436.537 188.457L468.228 118.629L501.466 56.9227L526.524 16.7775" stroke="white" stroke-width="5" stroke-miterlimit="10"/>
<path d="M140.694 16.7775L102.717 43.1941L124.596 50.0295L160.608 86.8943L177.761 91.3597L260.003 179.02L359.961 262.851L393.199 288.372L413.589 293.502L517.233 392.189L571.916 430.556L588.462 432.998L590.211 490.312L583.968 499.604L586.367 544.344" stroke="white" stroke-width="5" stroke-miterlimit="10"/>
<path d="M-156.118 581.859H-88.2986L72.2099 509.719L157.529 495.109L311.304 485.442L279.526 364.688V335.453H137.168L145.203 308.444" stroke="white" stroke-width="5" stroke-miterlimit="10"/>
<path d="M72.2095 509.72L75.4176 663.552L73.8136 782.962L68.2788 797.109V823.844" stroke="white" stroke-width="5" stroke-miterlimit="10"/>
</svg>
