<svg width="28" height="23" viewBox="0 0 28 23" fill="none" xmlns="http://www.w3.org/2000/svg">
<path d="M7.99523 2.875C7.99523 4.46074 6.64884 5.75 4.99284 5.75C3.33684 5.75 1.99045 4.46074 1.99045 2.875C1.99045 1.28926 3.33684 0 4.99284 0C6.64884 0 7.99523 1.28926 7.99523 2.875ZM0.203095 10.4848C0.362597 8.62051 1.99045 7.1875 3.942 7.1875H6.04368C7.31031 7.1875 8.4362 7.78945 9.11643 8.71934C8.98977 8.80469 8.87249 8.89902 8.76459 9.00234L5.7622 11.8773C4.73482 12.8611 4.73482 14.4514 5.7622 15.4352L7.99523 17.5734V20.8438C7.99523 22.0342 6.98661 23 5.74344 23H4.24224C2.99907 23 1.99045 22.0342 1.99045 20.8438V15.6463C0.747278 15.2195 -0.106526 14.0381 0.010755 12.6994L0.203095 10.4848ZM26.0095 2.875C26.0095 4.46074 24.6632 5.75 23.0072 5.75C21.3512 5.75 20.0048 4.46074 20.0048 2.875C20.0048 1.28926 21.3512 0 23.0072 0C24.6632 0 26.0095 1.28926 26.0095 2.875ZM19.2354 9.00234C19.1275 8.89902 19.0055 8.80469 18.8836 8.71934C19.5638 7.78945 20.6944 7.1875 21.9563 7.1875H24.058C26.0095 7.1875 27.6374 8.62051 27.7969 10.4848L27.9892 12.6994C28.1065 14.0381 27.2527 15.2195 26.0095 15.6463V20.8438C26.0095 22.0342 25.0009 23 23.7578 23H22.2566C21.0134 23 20.0048 22.0342 20.0048 20.8438V17.5734L22.2378 15.4352C23.2652 14.4514 23.2652 12.8611 22.2378 11.8773L19.2354 9.00234ZM11.7482 10.7812V12.2188H16.2518V10.7812C16.2518 10.3455 16.5239 9.9502 16.9461 9.78398C17.3683 9.61777 17.8515 9.70762 18.1752 10.0176L21.1776 12.8926C21.6186 13.3148 21.6186 13.9977 21.1776 14.4154L18.1752 17.2904C17.8515 17.6004 17.3683 17.6902 16.9461 17.524C16.5239 17.3578 16.2518 16.9625 16.2518 16.5268V15.0938H11.7482V16.5312C11.7482 16.967 11.4761 17.3623 11.0539 17.5285C10.6317 17.6947 10.1485 17.6049 9.82481 17.2949L6.82242 14.4199C6.38144 13.9977 6.38144 13.3148 6.82242 12.8971L9.82481 10.0221C10.1485 9.71211 10.6317 9.62227 11.0539 9.78848C11.4761 9.95469 11.7482 10.35 11.7482 10.7857V10.7812Z" fill="#0484D9"/>
</svg>
