<svg width="27" height="24" viewBox="0 0 27 24" fill="none" xmlns="http://www.w3.org/2000/svg">
<path d="M7.12969 4.575L5.75332 8.57143H21.2467L19.8703 4.575C19.633 3.88929 18.9949 3.42857 18.2777 3.42857H8.72227C8.00508 3.42857 7.36699 3.88929 7.12969 4.575ZM2.08828 8.82857L3.94453 3.44464C4.65645 1.38214 6.5707 0 8.72227 0H18.2777C20.4293 0 22.3436 1.38214 23.0555 3.44464L24.9117 8.82857C26.1352 9.34286 27 10.5696 27 12V19.7143V22.2857C27 23.2339 26.2459 24 25.3125 24H23.625C22.6916 24 21.9375 23.2339 21.9375 22.2857V19.7143H5.0625V22.2857C5.0625 23.2339 4.3084 24 3.375 24H1.6875C0.754102 24 0 23.2339 0 22.2857V19.7143V12C0 10.5696 0.864844 9.34286 2.08828 8.82857ZM6.75 13.7143C6.75 12.7661 5.9959 12 5.0625 12C4.1291 12 3.375 12.7661 3.375 13.7143C3.375 14.6625 4.1291 15.4286 5.0625 15.4286C5.9959 15.4286 6.75 14.6625 6.75 13.7143ZM21.9375 15.4286C22.8709 15.4286 23.625 14.6625 23.625 13.7143C23.625 12.7661 22.8709 12 21.9375 12C21.0041 12 20.25 12.7661 20.25 13.7143C20.25 14.6625 21.0041 15.4286 21.9375 15.4286Z" fill="#0484D9"/>
</svg>
