<svg width="100" height="29" viewBox="0 0 100 29" fill="none" xmlns="http://www.w3.org/2000/svg">
<path d="M28.5721 0H23.9746V22.3756H28.5721V0Z" fill="#0068AD"/>
<path d="M31.9375 5.51518L33.1658 0.917725H38.3749L36.3495 5.51518H31.9375Z" fill="#0068AD"/>
<path d="M36.535 7.04895H31.9375V22.3755H36.535V7.04895Z" fill="#0068AD"/>
<path d="M51.1497 7.04884V8.61307C50.137 7.35466 48.668 6.62268 46.6776 6.62268C42.3258 6.62268 39.1372 10.1773 39.1372 14.4088C39.1372 18.6402 42.3258 22.1949 46.6776 22.1949C48.668 22.1949 50.142 21.4579 51.1497 20.2045V21.6133C51.1497 23.7892 49.8312 24.8922 47.6854 24.8922C45.6649 24.8922 44.7725 24.0348 44.1909 22.9619L40.2703 25.2281C41.6791 27.7399 44.3463 28.9381 47.535 28.9381C51.611 28.9381 55.6269 26.7622 55.6269 21.6133V7.04884H51.1497ZM47.4397 17.9584C45.2638 17.9584 43.7296 16.5195 43.7296 14.4038C43.7296 12.288 45.2638 10.8491 47.4397 10.8491C49.6156 10.8491 51.1497 12.288 51.1497 14.4038C51.1497 16.5195 49.6156 17.9584 47.4397 17.9584Z" fill="#0068AD"/>
<path d="M74.1657 14.7097C74.1657 10.0822 70.8567 6.6178 66.3796 6.6178C61.5365 6.6178 58.2275 10.1423 58.2275 14.7097C58.2275 19.2771 61.4763 22.8016 66.7155 22.8016C69.6284 22.8016 71.8946 21.7287 73.3986 19.6431L69.7237 17.5273C69.112 18.1992 68.0391 18.6905 66.7807 18.6905C65.0961 18.6905 63.6873 18.139 63.1007 16.5447H73.9802C74.1005 15.9681 74.1657 15.3565 74.1657 14.7097ZM63.0105 13.1154C63.4417 11.5512 64.6048 10.6938 66.3495 10.6938C67.7283 10.6938 69.107 11.3356 69.5983 13.1154H63.0105Z" fill="#0068AD"/>
<path d="M81.3714 0H76.7739V22.3756H81.3714V0Z" fill="#0068AD"/>
<path d="M98.7568 9.72146C96.2901 11.4712 94.4401 14.1033 93.5527 15.5172C92.6302 16.9861 92.3494 18.1042 92.3193 18.2245L92.3143 18.2395C92.2291 18.6707 91.8731 18.9815 91.4319 19.0116C91.4119 19.0116 91.3868 19.0166 91.3668 19.0166C90.9557 19.0166 90.5847 18.7509 90.4493 18.3498C89.9279 16.8257 88.5542 15.6826 87.9124 15.2264L87.5615 15.0208C87.2657 14.8403 87.0902 14.5295 87.0902 14.1886C87.0902 13.6521 87.5264 13.2159 88.0628 13.2159C88.2383 13.2159 88.4088 13.261 88.5542 13.3513L88.5692 13.3613C88.6945 13.4365 89.3313 13.8326 90.0682 14.5094C90.334 14.7551 90.5847 15.0108 90.8103 15.2665L91.2063 15.7177L91.4971 15.1913C92.6101 13.1758 94.9515 11.0902 98.2755 9.15994C98.3006 9.1449 98.3256 9.13487 98.3457 9.12485C96.8617 7.12944 94.5153 5.83594 91.8631 5.83594C87.3709 5.83594 83.7261 9.54097 83.7261 14.1134C83.7261 18.6857 87.3709 22.3908 91.8631 22.3908C96.3553 22.3908 100 18.6857 100 14.1134C100 12.494 99.5389 10.9949 98.7568 9.72146Z" fill="#0068AD"/>
<path d="M21.3679 14.7097C21.3679 10.0822 18.0589 6.6178 13.5818 6.6178C10.2427 6.6178 7.63568 8.29735 6.34218 10.8392H4.26154C3.84542 10.8392 3.50951 11.1751 3.50951 11.5913C3.50951 12.0074 3.84542 12.3433 4.26154 12.3433H5.75058H7.26969C7.41007 12.3433 7.52037 12.4536 7.52037 12.594C7.52037 12.7344 7.41007 12.8447 7.26969 12.8447H5.63025H1.00272C0.451222 12.8447 0 13.2959 0 13.8474C0 14.3989 0.451222 14.8501 1.00272 14.8501H5.43973H6.26697C6.40735 14.8501 6.51765 14.9604 6.51765 15.1008C6.51765 15.2412 6.40735 15.3515 6.26697 15.3515H5.45979H3.25883C2.8427 15.3515 2.50679 15.6874 2.50679 16.1035C2.50679 16.5196 2.8427 16.8555 3.25883 16.8555H5.69543C6.55776 20.335 9.54084 22.8016 13.9227 22.8016C16.8356 22.8016 19.1017 21.7287 20.6058 19.6431L16.9258 17.5273C16.3142 18.1992 15.2413 18.6905 13.9829 18.6905C12.2983 18.6905 10.8895 18.139 10.3029 16.5447H21.1824C21.3077 15.9681 21.3679 15.3565 21.3679 14.7097ZM10.9346 13.3059C11.3658 11.7417 12.5289 10.8844 14.2737 10.8844C15.6524 10.8844 17.0311 11.5261 17.5225 13.3059H10.9346Z" fill="#0068AD"/>
</svg>
