<svg viewBox="0 0 111 125" fill="none" xmlns="http://www.w3.org/2000/svg">
<path d="M23.5525 123.259H0V113.064H0.893145V109.334H4.48821V35.8587H5.49007V24.2019H17.5461V35.8587H20.0109V109.334H22.233V113.064H23.5525V123.259ZM0.093719 123.165H23.4588V113.158H22.1392V109.428H19.9172V35.9524H17.4524V24.2956H5.58379V35.9524H4.58192V109.428H0.986864V113.158H0.093719V123.165Z" fill="#37AFFF"/>
<path d="M110.755 124.002H88.0479V77.7146H102.107V76.6649H105.73V77.0585H109.273V77.7146H110.755V124.002ZM88.329 123.721H110.474V77.9957H108.992V77.3397H105.449V76.9461H102.388V77.9957H88.329V123.721Z" fill="#37AFFF"/>
<path d="M111 123.702H68.7573L68.7695 123.456C69.3121 112.166 78.5847 103.322 89.8788 103.322C101.173 103.322 110.45 112.167 110.989 123.456L111 123.702ZM69.2503 123.233H110.507C109.858 112.311 100.844 103.791 89.8778 103.791C78.9118 103.791 69.9026 112.311 69.2503 123.233Z" fill="#37AFFF"/>
<path d="M74.3783 123.747H53.2081V123.359H52.8145V120.365H53.2081V119.382H52.8145V116.389H53.2081V115.207H52.8145V112.214H53.2081V111.032H52.8145V108.038H53.2081V107.055H52.8145V104.062H53.2081V102.88H52.8145V99.8866H53.2081V98.7048H52.8145V95.7115H53.2081V94.7283H52.8145V91.735H53.2081V90.5532H52.8145V87.5598H53.2081V86.378H52.8145V83.3846H53.2081V82.2028H52.8145V79.2094H53.2081V78.0276H52.8145V75.0342H53.2081V74.0511H52.8145V71.0577H53.2081V69.875H52.8145V66.8816H53.2081V65.6998H52.8145V62.7064H53.2081V61.7233H52.8145V58.7299H53.2081V57.5472H52.8145V54.5538H53.2081V53.3711H52.8145V50.3777H53.2081V49.195H52.8145V46.2016H53.2081V45.0198H52.8145V42.0264H56.4386V31.0238H60.7731V32.2834H62.1095V33.0125H62.4984V31.0575H62.6493V28.0248H62.8574V20.6182H63.1826V28.0248H63.3907V31.0575H63.5415V33.0125H65.5453V32.2834H66.8817V31.0238H71.2162V42.0264H74.7719V45.0198H74.3783V46.2016H74.7719V49.195H74.3783V50.3777H74.7719V53.3711H74.3783V54.5538H74.7719V57.5472H74.3783V58.7299H74.7719V61.7233H74.3783V62.7064H74.7719V65.6998H74.3783V66.8816H74.7719V69.875H74.3783V71.0577H74.7719V74.0511H74.3783V75.0342H74.7719V78.0276H74.3783V79.2094H74.7719V82.2028H74.3783V83.3846H74.7719V86.378H74.3783V87.5598H74.7719V90.5532H74.3783V91.735H74.7719V94.7283H74.3783V95.7115H74.7719V98.7048H74.3783V99.8866H74.7719V102.88H74.3783V104.062H74.7719V107.055H74.3783V108.038H74.7719V111.032H74.3783V112.214H74.7719V115.207H74.3783V116.389H74.7719V119.382H74.3783V120.365H74.7719V123.359H74.3783V123.747ZM53.3018 123.654H74.2846V123.265H74.6782V120.459H74.2846V119.288H74.6782V116.482H74.2846V115.113H74.6782V112.307H74.2846V110.938H74.6782V108.132H74.2846V106.961H74.6782V104.156H74.2846V102.786H74.6782V99.9804H74.2846V98.6111H74.6782V95.8052H74.2846V94.6346H74.6782V91.8287H74.2846V90.4594H74.6782V87.6535H74.2846V86.2843H74.6782V83.4783H74.2846V82.1091H74.6782V79.3031H74.2846V77.9339H74.6782V75.128H74.2846V73.9574H74.6782V71.1515H74.2846V69.7813H74.6782V66.9753H74.2846V65.6061H74.6782V62.8002H74.2846V61.6296H74.6782V58.8237H74.2846V57.4535H74.6782V54.6475H74.2846V53.2774H74.6782V50.4714H74.2846V49.1012H74.6782V46.2953H74.2846V44.9261H74.6782V42.1201H71.1225V31.1175H66.9754V32.3771H65.639V33.1062H63.4478V31.1512H63.2969V28.1185H63.0889V20.7119H62.9511V28.1185H62.743V31.1512H62.5922V33.1062H62.0158V32.3771H60.6793V31.1175H56.5323V42.1201H52.9082V44.9261H53.3018V46.2953H52.9082V49.1012H53.3018V50.4714H52.9082V53.2774H53.3018V54.6475H52.9082V57.4535H53.3018V58.8237H52.9082V61.6296H53.3018V62.8002H52.9082V65.6061H53.3018V66.9753H52.9082V69.7813H53.3018V71.1515H52.9082V73.9574H53.3018V75.128H52.9082V77.9339H53.3018V79.3031H52.9082V82.1091H53.3018V83.4783H52.9082V86.2843H53.3018V87.6535H52.9082V90.4594H53.3018V91.8287H52.9082V94.6346H53.3018V95.8052H52.9082V98.6111H53.3018V99.9804H52.9082V102.786H53.3018V104.156H52.9082V106.961H53.3018V108.132H52.9082V110.938H53.3018V112.307H52.9082V115.113H53.3018V116.482H52.9082V119.288H53.3018V120.459H52.9082V123.265H53.3018V123.654Z" fill="#37AFFF"/>
<path d="M90.1828 123.881H76.1699V72.9639H78.3779V70.6294H89.3168V72.9639H90.1828V123.881ZM76.6385 123.412H89.7142V73.4325H88.8482V71.098H78.8465V73.4325H76.6385V123.412Z" fill="#37AFFF"/>
<path d="M77.0973 29.6143H42.5571V4.06653H77.0973V29.6143ZM42.932 29.2395H76.7224V4.4414H42.932V29.2395Z" fill="#37AFFF" fill-opacity="0.5"/>
<path d="M76.4531 122.936H43.1997V4.67664H76.4531V122.936ZM43.5746 122.561H76.0782V5.05151H43.5746V122.561Z" fill="#37AFFF" fill-opacity="0.5"/>
<path d="M78.6769 123.41H40.9756V29.1484H78.6769V123.41ZM41.3505 123.035H78.302V29.5233H41.3505V123.035Z" fill="#37AFFF" fill-opacity="0.5"/>
<path d="M77.0234 8.416H43.2002V7.58472H77.0234V8.416ZM43.5751 8.04113H76.6485V7.95959H43.5751V8.04113Z" fill="#37AFFF" fill-opacity="0.5"/>
<path d="M77.0234 11.34H43.2002V10.5087H77.0234V11.34ZM43.5751 10.9651H76.6485V10.8835H43.5751V10.9651Z" fill="#37AFFF" fill-opacity="0.5"/>
<path d="M77.0234 14.4468H43.2002V13.6146H77.0234V14.4468ZM43.5751 14.072H76.6485V13.9895H43.5751V14.072Z" fill="#37AFFF" fill-opacity="0.5"/>
<path d="M77.0234 17.279H43.2002V16.4468H77.0234V17.279ZM43.5751 16.9041H76.6485V16.8217H43.5751V16.9041Z" fill="#37AFFF" fill-opacity="0.5"/>
<path d="M77.0234 20.112H43.2002V19.2798H77.0234V20.112ZM43.5751 19.7371H76.6485V19.6547H43.5751V19.7371Z" fill="#37AFFF" fill-opacity="0.5"/>
<path d="M77.0234 22.9442H43.2002V22.1119H77.0234V22.9442ZM43.5751 22.5693H76.6485V22.4868H43.5751V22.5693Z" fill="#37AFFF" fill-opacity="0.5"/>
<path d="M77.0234 25.7774H43.2002V24.9452H77.0234V25.7774ZM43.5751 25.4025H76.6485V25.3201H43.5751V25.4025Z" fill="#37AFFF" fill-opacity="0.5"/>
<path d="M77.0234 28.6097H43.2002V27.7784H77.0234V28.6097ZM43.5751 28.2349H76.6485V28.1533H43.5751V28.2349Z" fill="#37AFFF" fill-opacity="0.5"/>
<path d="M79.2467 31.5336H40.9756V30.7014H79.2467V31.5336ZM41.3505 31.1588H78.8718V31.0763H41.3505V31.1588Z" fill="#37AFFF" fill-opacity="0.5"/>
<path d="M79.2467 34.275H40.9756V33.4427H79.2467V34.275ZM41.3505 33.9001H78.8718V33.8176H41.3505V33.9001Z" fill="#37AFFF" fill-opacity="0.5"/>
<path d="M79.2467 37.1072H40.9756V36.2759H79.2467V37.1072ZM41.3505 36.7323H78.8718V36.6508H41.3505V36.7323Z" fill="#37AFFF" fill-opacity="0.5"/>
<path d="M79.2467 39.8485H40.9756V39.0162H79.2467V39.8485ZM41.3505 39.4736H78.8718V39.3911H41.3505V39.4736Z" fill="#37AFFF" fill-opacity="0.5"/>
<path d="M79.2467 42.7724H40.9756V41.9402H79.2467V42.7724ZM41.3505 42.3975H78.8718V42.3151H41.3505V42.3975Z" fill="#37AFFF" fill-opacity="0.5"/>
<path d="M79.2467 45.8792H40.9756V45.047H79.2467V45.8792ZM41.3505 45.5043H78.8718V45.4219H41.3505V45.5043Z" fill="#37AFFF" fill-opacity="0.5"/>
<path d="M79.2467 48.7124H40.9756V47.8801H79.2467V48.7124ZM41.3505 48.3375H78.8718V48.255H41.3505V48.3375Z" fill="#37AFFF" fill-opacity="0.5"/>
<path d="M79.2467 51.5445H40.9756V50.7123H79.2467V51.5445ZM41.3505 51.1696H78.8718V51.0872H41.3505V51.1696Z" fill="#37AFFF" fill-opacity="0.5"/>
<path d="M79.2467 54.3768H40.9756V53.5446H79.2467V54.3768ZM41.3505 54.0019H78.8718V53.9194H41.3505V54.0019Z" fill="#37AFFF" fill-opacity="0.5"/>
<path d="M79.2467 57.2098H40.9756V56.3776H79.2467V57.2098ZM41.3505 56.8349H78.8718V56.7524H41.3505V56.8349Z" fill="#37AFFF" fill-opacity="0.5"/>
<path d="M79.2467 60.0419H40.9756V59.2097H79.2467V60.0419ZM41.3505 59.6671H78.8718V59.5846H41.3505V59.6671Z" fill="#37AFFF" fill-opacity="0.5"/>
<path d="M79.2467 62.9661H40.9756V62.1339H79.2467V62.9661ZM41.3505 62.5913H78.8718V62.5088H41.3505V62.5913Z" fill="#37AFFF" fill-opacity="0.5"/>
<path d="M79.2467 65.7073H40.9756V64.8751H79.2467V65.7073ZM41.3505 65.3325H78.8718V65.25H41.3505V65.3325Z" fill="#37AFFF" fill-opacity="0.5"/>
<path d="M79.2467 68.5405H40.9756V67.7083H79.2467V68.5405ZM41.3505 68.1656H78.8718V68.0831H41.3505V68.1656Z" fill="#37AFFF" fill-opacity="0.5"/>
<path d="M79.2467 71.3727H40.9756V70.5414H79.2467V71.3727ZM41.3505 70.9978H78.8718V70.9163H41.3505V70.9978Z" fill="#37AFFF" fill-opacity="0.5"/>
<path d="M79.2467 74.2967H40.9756V73.4645H79.2467V74.2967ZM41.3505 73.9218H78.8718V73.8394H41.3505V73.9218Z" fill="#37AFFF" fill-opacity="0.5"/>
<path d="M79.2467 77.4036H40.9756V76.5714H79.2467V77.4036ZM41.3505 77.0288H78.8718V76.9463H41.3505V77.0288Z" fill="#37AFFF" fill-opacity="0.5"/>
<path d="M79.2467 80.2356H40.9756V79.4043H79.2467V80.2356ZM41.3505 79.8607H78.8718V79.7792H41.3505V79.8607Z" fill="#37AFFF" fill-opacity="0.5"/>
<path d="M79.2467 83.0688H40.9756V82.2366H79.2467V83.0688ZM41.3505 82.6939H78.8718V82.6114H41.3505V82.6939Z" fill="#37AFFF" fill-opacity="0.5"/>
<path d="M79.2467 85.9011H40.9756V85.0688H79.2467V85.9011ZM41.3505 85.5262H78.8718V85.4437H41.3505V85.5262Z" fill="#37AFFF" fill-opacity="0.5"/>
<path d="M79.2467 88.7341H40.9756V87.9019H79.2467V88.7341ZM41.3505 88.3592H78.8718V88.2767H41.3505V88.3592Z" fill="#37AFFF" fill-opacity="0.5"/>
<path d="M79.2467 91.5662H40.9756V90.734H79.2467V91.5662ZM41.3505 91.1914H78.8718V91.1089H41.3505V91.1914Z" fill="#37AFFF" fill-opacity="0.5"/>
<path d="M79.2467 94.4903H40.9756V93.6581H79.2467V94.4903ZM41.3505 94.1154H78.8718V94.033H41.3505V94.1154Z" fill="#37AFFF" fill-opacity="0.5"/>
<path d="M79.2467 97.2317H40.9756V96.4004H79.2467V97.2317ZM41.3505 96.8568H78.8718V96.7753H41.3505V96.8568Z" fill="#37AFFF" fill-opacity="0.5"/>
<path d="M79.2467 100.065H40.9756V99.2325H79.2467V100.065ZM41.3505 99.6899H78.8718V99.6074H41.3505V99.6899Z" fill="#37AFFF" fill-opacity="0.5"/>
<path d="M79.2467 103.445H40.9756V102.613H79.2467V103.445ZM41.3505 103.07H78.8718V102.988H41.3505V103.07Z" fill="#37AFFF" fill-opacity="0.5"/>
<path d="M79.2467 106.369H40.9756V105.537H79.2467V106.369ZM41.3505 105.994H78.8718V105.912H41.3505V105.994Z" fill="#37AFFF" fill-opacity="0.5"/>
<path d="M79.2467 109.476H40.9756V108.644H79.2467V109.476ZM41.3505 109.101H78.8718V109.019H41.3505V109.101Z" fill="#37AFFF" fill-opacity="0.5"/>
<path d="M79.2467 112.308H40.9756V111.477H79.2467V112.308ZM41.3505 111.933H78.8718V111.852H41.3505V111.933Z" fill="#37AFFF" fill-opacity="0.5"/>
<path d="M79.2467 115.141H40.9756V114.309H79.2467V115.141ZM41.3505 114.766H78.8718V114.684H41.3505V114.766Z" fill="#37AFFF" fill-opacity="0.5"/>
<path d="M79.2467 117.973H40.9756V117.141H79.2467V117.973ZM41.3505 117.598H78.8718V117.516H41.3505V117.598Z" fill="#37AFFF" fill-opacity="0.5"/>
<path d="M79.2467 120.807H40.9756V119.974H79.2467V120.807ZM41.3505 120.432H78.8718V120.349H41.3505V120.432Z" fill="#37AFFF" fill-opacity="0.5"/>
<path d="M79.2467 123.639H40.9756V122.807H79.2467V123.639ZM41.3505 123.264H78.8718V123.182H41.3505V123.264Z" fill="#37AFFF" fill-opacity="0.5"/>
<path d="M69.4741 122.936H50.1802V1.84064L50.3001 1.79472C53.3816 0.604488 56.5878 0 59.8276 0C63.0675 0 66.2736 0.60355 69.3551 1.79472L69.4751 1.84064V122.936H69.4741ZM50.5551 122.561H69.0992V2.09837C63.0309 -0.213679 56.6234 -0.213679 50.5551 2.09837V122.561Z" fill="#37AFFF" fill-opacity="0.5"/>
<path d="M69.4741 123.942H50.1802V2.84626L50.3001 2.80033C53.3816 1.6101 56.5878 1.00562 59.8276 1.00562C63.0675 1.00562 66.2736 1.60917 69.3551 2.80033L69.4751 2.84626V123.942H69.4741ZM50.5551 123.567H69.0992V3.10305C63.0309 0.790999 56.6234 0.790999 50.5551 3.10305V123.567Z" fill="#37AFFF" fill-opacity="0.5"/>
<path d="M69.4741 6.30925L69.2192 6.21084C63.075 3.83694 56.5793 3.83694 50.4351 6.21084L50.1802 6.30925V5.03092H50.5551V5.3983C53.5587 4.2718 56.6768 3.70105 59.8276 3.70105C62.9785 3.70105 66.0965 4.2718 69.1002 5.3983V5.03092H69.4751V6.30925H69.4741ZM59.8267 4.06468C59.2297 4.06468 58.6327 4.08623 58.0357 4.12841C59.2259 4.04594 60.4265 4.04594 61.6176 4.12841C61.0207 4.08623 60.4237 4.06468 59.8267 4.06468Z" fill="#37AFFF" fill-opacity="0.5"/>
<path d="M69.4741 9.14128L69.2192 9.04288C63.075 6.66897 56.5793 6.66897 50.4351 9.04288L50.1802 9.14128V7.86295H50.5551V8.23033C53.5587 7.10383 56.6768 6.53308 59.8276 6.53308C62.9785 6.53308 66.0965 7.10383 69.1002 8.23033V7.86295H69.4751V9.14128H69.4741ZM59.8267 6.89859C60.4246 6.89859 61.0225 6.9192 61.6176 6.96044C60.4246 6.87609 59.2288 6.87609 58.0366 6.96044C58.6318 6.9192 59.2288 6.89859 59.8276 6.89859H59.8267Z" fill="#37AFFF" fill-opacity="0.5"/>
<path d="M69.4741 11.9745L69.2192 11.8761C63.075 9.50223 56.5793 9.50223 50.4351 11.8761L50.1802 11.9745V10.6962H50.5551V11.0636C53.5587 9.93708 56.6768 9.36633 59.8276 9.36633C62.9785 9.36633 66.0965 9.93708 69.1002 11.0636V10.6962H69.4751V11.9745H69.4741ZM59.8267 9.73184C60.4246 9.73184 61.0225 9.75246 61.6176 9.79369C60.4246 9.70934 59.2288 9.70934 58.0366 9.79369C58.6318 9.75246 59.2288 9.73184 59.8276 9.73184H59.8267Z" fill="#37AFFF" fill-opacity="0.5"/>
<path d="M69.4741 14.8067L69.2192 14.7083C63.075 12.3344 56.5793 12.3344 50.4351 14.7083L50.1802 14.8067V13.5284H50.5551V13.8957C53.5587 12.7692 56.6768 12.1985 59.8276 12.1985C62.9785 12.1985 66.0965 12.7692 69.1002 13.8957V13.5284H69.4751V14.8067H69.4741ZM59.8267 12.5621C59.2297 12.5621 58.6327 12.5837 58.0357 12.6258C59.2259 12.5434 60.4265 12.5434 61.6176 12.6258C61.0207 12.5837 60.4237 12.5621 59.8267 12.5621Z" fill="#37AFFF" fill-opacity="0.5"/>
<path d="M69.4741 17.639L69.2192 17.5406C63.075 15.1667 56.5793 15.1667 50.4351 17.5406L50.1802 17.639V16.3606H50.5551V16.728C53.5587 15.6015 56.6768 15.0308 59.8276 15.0308C62.9785 15.0308 66.0965 15.6015 69.1002 16.728V16.3606H69.4751V17.639H69.4741ZM59.8267 15.3963C60.4246 15.3963 61.0216 15.4169 61.6167 15.4581C60.4237 15.3728 59.2288 15.3738 58.0357 15.4581C58.6308 15.4169 59.2278 15.3963 59.8258 15.3963H59.8267Z" fill="#37AFFF" fill-opacity="0.5"/>
<path d="M69.4741 20.4721L69.2192 20.3737C63.075 17.9998 56.5793 17.9998 50.4351 20.3737L50.1802 20.4721V19.1938H50.5551V19.5611C53.5587 18.4346 56.6768 17.8639 59.8276 17.8639C62.9785 17.8639 66.0965 18.4346 69.1002 19.5611V19.1938H69.4751V20.4721H69.4741ZM59.8267 18.2294C60.4246 18.2294 61.0216 18.25 61.6167 18.2913C60.4237 18.206 59.2288 18.2069 58.0357 18.2913C58.6308 18.25 59.2278 18.2294 59.8258 18.2294H59.8267Z" fill="#37AFFF" fill-opacity="0.5"/>
<path d="M69.4741 23.3041L69.2192 23.2057C63.075 20.8318 56.5793 20.8318 50.4351 23.2057L50.1802 23.3041V22.0258H50.5551V22.3932C53.5587 21.2667 56.6768 20.6959 59.8276 20.6959C62.9785 20.6959 66.0965 21.2667 69.1002 22.3932V22.0258H69.4751V23.3041H69.4741ZM59.8267 21.0614C60.4302 21.0614 61.0329 21.082 61.6327 21.1242C60.4293 21.038 59.2231 21.038 58.0207 21.1242C58.6215 21.082 59.2231 21.0614 59.8267 21.0614Z" fill="#37AFFF" fill-opacity="0.5"/>
<path d="M69.4741 26.2282L69.2192 26.1298C63.075 23.7559 56.5793 23.7559 50.4351 26.1298L50.1802 26.2282V24.9499H50.5551V25.3172C53.5587 24.1907 56.6768 23.62 59.8276 23.62C62.9785 23.62 66.0965 24.1907 69.1002 25.3172V24.9499H69.4751V26.2282H69.4741ZM59.8267 23.9855C60.4246 23.9855 61.0216 24.0061 61.6167 24.0474C60.4237 23.9621 59.2288 23.963 58.0357 24.0474C58.6308 24.0061 59.2278 23.9855 59.8258 23.9855H59.8267Z" fill="#37AFFF" fill-opacity="0.5"/>
<path d="M69.4741 29.1523L69.2192 29.0539C63.075 26.68 56.5793 26.68 50.4351 29.0539L50.1802 29.1523V27.8739H50.5551V28.2413C53.5587 27.1148 56.6768 26.5441 59.8276 26.5441C62.9785 26.5441 66.0965 27.1148 69.1002 28.2413V27.8739H69.4751V29.1523H69.4741ZM59.8267 26.9096C60.4302 26.9096 61.0329 26.9302 61.6336 26.9724C60.4293 26.8861 59.2231 26.8861 58.0198 26.9724C58.6205 26.9302 59.2231 26.9096 59.8267 26.9096Z" fill="#37AFFF" fill-opacity="0.5"/>
<path d="M69.4741 32.1681L69.2192 32.0697C63.075 29.6958 56.5793 29.6958 50.4351 32.0697L50.1802 32.1681V30.8898H50.5551V31.2572C53.5587 30.1307 56.6768 29.5599 59.8276 29.5599C62.9785 29.5599 66.0965 30.1307 69.1002 31.2572V30.8898H69.4751V32.1681H69.4741ZM59.8267 29.9236C59.2297 29.9236 58.6327 29.9451 58.0357 29.9873C59.2259 29.9048 60.4265 29.9048 61.6176 29.9873C61.0207 29.9451 60.4237 29.9236 59.8267 29.9236Z" fill="#37AFFF" fill-opacity="0.5"/>
<path d="M69.4741 35.0003L69.2192 34.9019C63.075 32.528 56.5793 32.528 50.4351 34.9019L50.1802 35.0003V33.722H50.5551V34.0893C53.5587 32.9628 56.6768 32.3921 59.8276 32.3921C62.9785 32.3921 66.0965 32.9628 69.1002 34.0893V33.722H69.4751V35.0003H69.4741ZM59.8267 32.7576C60.4246 32.7576 61.0225 32.7782 61.6176 32.8194C60.4246 32.7351 59.2288 32.7351 58.0366 32.8194C58.6318 32.7782 59.2288 32.7576 59.8276 32.7576H59.8267Z" fill="#37AFFF" fill-opacity="0.5"/>
<path d="M69.4741 37.8334L69.2192 37.735C63.075 35.3611 56.5793 35.3611 50.4351 37.735L50.1802 37.8334V36.5551H50.5551V36.9225C53.5587 35.796 56.6768 35.2252 59.8276 35.2252C62.9785 35.2252 66.0965 35.796 69.1002 36.9225V36.5551H69.4751V37.8334H69.4741ZM59.8267 35.5889C59.2278 35.5889 58.6289 35.6104 58.0301 35.6526C59.225 35.5701 60.4293 35.5701 61.6233 35.6526C61.0244 35.6095 60.4256 35.5889 59.8267 35.5889Z" fill="#37AFFF" fill-opacity="0.5"/>
<path d="M69.4741 40.6656L69.2192 40.5672C63.075 38.1933 56.5793 38.1933 50.4351 40.5672L50.1802 40.6656V39.3872H50.5551V39.7546C53.5587 38.6281 56.6768 38.0574 59.8276 38.0574C62.9785 38.0574 66.0965 38.6281 69.1002 39.7546V39.3872H69.4751V40.6656H69.4741ZM59.8267 38.4229C60.4321 38.4229 61.0366 38.4435 61.6392 38.4857C60.4312 38.3985 59.2213 38.3985 58.0142 38.4857C58.6168 38.4435 59.2213 38.4229 59.8267 38.4229Z" fill="#37AFFF" fill-opacity="0.5"/>
<path d="M69.4741 43.4979L69.2192 43.3994C63.075 41.0255 56.5793 41.0255 50.4351 43.3994L50.1802 43.4979V42.2195H50.5551V42.5869C53.5587 41.4604 56.6768 40.8896 59.8276 40.8896C62.9785 40.8896 66.0965 41.4604 69.1002 42.5869V42.2195H69.4751V43.4979H69.4741ZM59.8267 41.2552C60.4321 41.2552 61.0366 41.2758 61.6392 41.3179C60.4312 41.2308 59.2213 41.2308 58.0142 41.3179C58.6168 41.2758 59.2213 41.2552 59.8267 41.2552Z" fill="#37AFFF" fill-opacity="0.5"/>
<path d="M69.4741 46.6965L69.2192 46.5981C63.075 44.2241 56.5793 44.2241 50.4351 46.5981L50.1802 46.6965V45.4181H50.5551V45.7855C53.5587 44.659 56.6768 44.0883 59.8276 44.0883C62.9785 44.0883 66.0965 44.659 69.1002 45.7855V45.4181H69.4751V46.6965H69.4741ZM59.8267 44.4519C59.2334 44.4519 58.6393 44.4725 58.046 44.5147C59.2297 44.4331 60.4227 44.4331 61.6064 44.5147C61.0132 44.4725 60.4199 44.4519 59.8258 44.4519H59.8267Z" fill="#37AFFF" fill-opacity="0.5"/>
<path d="M69.4741 49.5287L69.2192 49.4303C63.075 47.0564 56.5793 47.0564 50.4351 49.4303L50.1802 49.5287V48.2504H50.5551V48.6178C53.5587 47.4913 56.6768 46.9205 59.8276 46.9205C62.9785 46.9205 66.0965 47.4913 69.1002 48.6178V48.2504H69.4751V49.5287H69.4741ZM59.8267 47.286C60.4321 47.286 61.0366 47.3067 61.6392 47.3488C60.4312 47.2617 59.2213 47.2617 58.0142 47.3488C58.6168 47.3067 59.2213 47.286 59.8267 47.286Z" fill="#37AFFF" fill-opacity="0.5"/>
<path d="M69.4741 52.3619L69.2192 52.2635C63.075 49.8896 56.5793 49.8896 50.4351 52.2635L50.1802 52.3619V51.0835H50.5551V51.4509C53.5587 50.3244 56.6768 49.7537 59.8276 49.7537C62.9785 49.7537 66.0965 50.3244 69.1002 51.4509V51.0835H69.4751V52.3619H69.4741ZM59.8267 50.1192C60.4321 50.1192 61.0366 50.1398 61.6392 50.182C60.4312 50.0948 59.2213 50.0948 58.0142 50.182C58.6168 50.1398 59.2213 50.1192 59.8267 50.1192Z" fill="#37AFFF" fill-opacity="0.5"/>
<path d="M69.4741 55.194L69.2192 55.0956C63.075 52.7217 56.5793 52.7217 50.4351 55.0956L50.1802 55.194V53.9157H50.5551V54.2831C53.5587 53.1566 56.6768 52.5858 59.8276 52.5858C62.9785 52.5858 66.0965 53.1566 69.1002 54.2831V53.9157H69.4751V55.194H69.4741ZM59.8267 52.9513C60.4284 52.9513 61.0282 52.9719 61.627 53.0141C60.4274 52.9288 59.226 52.9288 58.0264 53.0141C58.6252 52.9729 59.225 52.9513 59.8267 52.9513Z" fill="#37AFFF" fill-opacity="0.5"/>
<path d="M69.4741 58.0271L69.2192 57.9287C63.075 55.5548 56.5793 55.5548 50.4351 57.9287L50.1802 58.0271V56.7488H50.5551V57.1162C53.5587 55.9897 56.6768 55.4189 59.8276 55.4189C62.9785 55.4189 66.0965 55.9897 69.1002 57.1162V56.7488H69.4751V58.0271H69.4741ZM59.8267 55.7844C60.4171 55.7844 61.0066 55.8041 61.5952 55.8444C60.4171 55.762 59.2363 55.762 58.0591 55.8444C58.6468 55.8041 59.2363 55.7844 59.8276 55.7844H59.8267Z" fill="#37AFFF" fill-opacity="0.5"/>
<path d="M69.4741 60.8592L69.2192 60.7608C63.075 58.3869 56.5793 58.3869 50.4351 60.7608L50.1802 60.8592V59.5808H50.5551V59.9482C53.5587 58.8217 56.6768 58.251 59.8276 58.251C62.9785 58.251 66.0965 58.8217 69.1002 59.9482V59.5808H69.4751V60.8592H69.4741ZM59.8267 58.6165C60.4171 58.6165 61.0066 58.6362 61.5952 58.6765C60.4171 58.594 59.2363 58.594 58.0591 58.6765C58.6468 58.6362 59.2363 58.6165 59.8276 58.6165H59.8267Z" fill="#37AFFF" fill-opacity="0.5"/>
<path d="M69.4741 63.6914L69.2192 63.593C63.075 61.2191 56.5793 61.2191 50.4351 63.593L50.1802 63.6914V62.4131H50.5551V62.7805C53.5587 61.654 56.6768 61.0833 59.8276 61.0833C62.9785 61.0833 66.0965 61.654 69.1002 62.7805V62.4131H69.4751V63.6914H69.4741ZM59.8267 61.4469C59.2334 61.4469 58.6393 61.4675 58.046 61.5097C59.2297 61.4281 60.4227 61.4281 61.6064 61.5097C61.0132 61.4675 60.4199 61.4469 59.8258 61.4469H59.8267Z" fill="#37AFFF" fill-opacity="0.5"/>
<path d="M69.4741 66.8901L69.2192 66.7917C63.075 64.4177 56.5793 64.4177 50.4351 66.7917L50.1802 66.8901V65.6117H50.5551V65.9791C53.5587 64.8526 56.6768 64.2819 59.8276 64.2819C62.9785 64.2819 66.0965 64.8526 69.1002 65.9791V65.6117H69.4751V66.8901H69.4741ZM59.8267 64.6474C60.4181 64.6474 61.0075 64.667 61.5961 64.7073C60.4171 64.6249 59.2362 64.6249 58.0582 64.7073C58.6458 64.667 59.2363 64.6474 59.8276 64.6474H59.8267Z" fill="#37AFFF" fill-opacity="0.5"/>
<path d="M69.4741 69.7222L69.2192 69.6238C63.075 67.2499 56.5793 67.2499 50.4351 69.6238L50.1802 69.7222V68.4439H50.5551V68.8113C53.5587 67.6848 56.6768 67.114 59.8276 67.114C62.9785 67.114 66.0965 67.6848 69.1002 68.8113V68.4439H69.4751V69.7222H69.4741ZM59.8267 67.4795C60.4181 67.4795 61.0075 67.4992 61.5961 67.5395C60.4171 67.457 59.2362 67.457 58.0582 67.5395C58.6458 67.4992 59.2363 67.4795 59.8276 67.4795H59.8267Z" fill="#37AFFF" fill-opacity="0.5"/>
<path d="M69.4741 72.5553L69.2192 72.4569C63.075 70.083 56.5793 70.083 50.4351 72.4569L50.1802 72.5553V71.277H50.5551V71.6444C53.5587 70.5179 56.6768 69.9471 59.8276 69.9471C62.9785 69.9471 66.0965 70.5179 69.1002 71.6444V71.277H69.4751V72.5553H69.4741ZM59.8267 70.3108C59.2334 70.3108 58.6393 70.3314 58.046 70.3736C59.2297 70.292 60.4227 70.292 61.6064 70.3736C61.0132 70.3314 60.4199 70.3108 59.8258 70.3108H59.8267Z" fill="#37AFFF" fill-opacity="0.5"/>
<path d="M69.4741 75.3876L69.2192 75.2892C63.075 72.9153 56.5793 72.9153 50.4351 75.2892L50.1802 75.3876V74.1093H50.5551V74.4767C53.5587 73.3502 56.6768 72.7794 59.8276 72.7794C62.9785 72.7794 66.0965 73.3502 69.1002 74.4767V74.1093H69.4751V75.3876H69.4741ZM59.8267 73.1449C60.4321 73.1449 61.0366 73.1655 61.6392 73.2077C60.4312 73.1206 59.2213 73.1206 58.0142 73.2077C58.6168 73.1655 59.2213 73.1449 59.8267 73.1449Z" fill="#37AFFF" fill-opacity="0.5"/>
<path d="M69.4741 78.2208L69.2192 78.1223C63.075 75.7484 56.5793 75.7484 50.4351 78.1223L50.1802 78.2208V76.9424H50.5551V77.3098C53.5587 76.1833 56.6768 75.6125 59.8276 75.6125C62.9785 75.6125 66.0965 76.1833 69.1002 77.3098V76.9424H69.4751V78.2208H69.4741ZM59.8267 75.9781C60.4321 75.9781 61.0366 75.9987 61.6392 76.0408C60.4312 75.9537 59.2213 75.9537 58.0142 76.0408C58.6168 75.9987 59.2213 75.9781 59.8267 75.9781Z" fill="#37AFFF" fill-opacity="0.5"/>
<path d="M69.4741 81.0529L69.2192 80.9545C63.075 78.5806 56.5793 78.5806 50.4351 80.9545L50.1802 81.0529V79.7746H50.5551V80.142C53.5587 79.0154 56.6768 78.4447 59.8276 78.4447C62.9785 78.4447 66.0965 79.0154 69.1002 80.142V79.7746H69.4751V81.0529H69.4741ZM59.8267 78.8102C60.4321 78.8102 61.0366 78.8308 61.6392 78.873C60.4312 78.7858 59.2213 78.7858 58.0142 78.873C58.6168 78.8308 59.2213 78.8102 59.8267 78.8102Z" fill="#37AFFF" fill-opacity="0.5"/>
<path d="M69.4741 83.8862L69.2192 83.7878C63.075 81.4138 56.5793 81.4138 50.4351 83.7878L50.1802 83.8862V82.6078H50.5551V82.9752C53.5587 81.8487 56.6768 81.278 59.8276 81.278C62.9785 81.278 66.0965 81.8487 69.1002 82.9752V82.6078H69.4751V83.8862H69.4741ZM59.8267 81.6435C60.4171 81.6435 61.0066 81.6631 61.5952 81.7034C60.4171 81.621 59.2363 81.621 58.0591 81.7034C58.6468 81.6631 59.2363 81.6435 59.8276 81.6435H59.8267Z" fill="#37AFFF" fill-opacity="0.5"/>
<path d="M69.4741 87.0838L69.2192 86.9854C63.075 84.6115 56.5793 84.6115 50.4351 86.9854L50.1802 87.0838V85.8055H50.5551V86.1728C53.5587 85.0463 56.6768 84.4756 59.8276 84.4756C62.9785 84.4756 66.0965 85.0463 69.1002 86.1728V85.8055H69.4751V87.0838H69.4741ZM59.8267 84.8411C60.4321 84.8411 61.0366 84.8617 61.6392 84.9039C60.4312 84.8167 59.2213 84.8167 58.0142 84.9039C58.6168 84.8617 59.2213 84.8411 59.8267 84.8411Z" fill="#37AFFF" fill-opacity="0.5"/>
<path d="M69.4741 89.9169L69.2192 89.8185C63.075 87.4446 56.5793 87.4446 50.4351 89.8185L50.1802 89.9169V88.6386H50.5551V89.006C53.5587 87.8795 56.6768 87.3087 59.8276 87.3087C62.9785 87.3087 66.0965 87.8795 69.1002 89.006V88.6386H69.4751V89.9169H69.4741ZM59.8267 87.6742C60.4321 87.6742 61.0366 87.6948 61.6392 87.737C60.4312 87.6499 59.2213 87.6499 58.0142 87.737C58.6168 87.6948 59.2213 87.6742 59.8267 87.6742Z" fill="#37AFFF" fill-opacity="0.5"/>
<path d="M69.4741 92.7491L69.2192 92.6507C63.075 90.2768 56.5793 90.2768 50.4351 92.6507L50.1802 92.7491V91.4707H50.5551V91.8381C53.5587 90.7116 56.6768 90.1409 59.8276 90.1409C62.9785 90.1409 66.0965 90.7116 69.1002 91.8381V91.4707H69.4751V92.7491H69.4741ZM59.8267 90.5064C60.4181 90.5064 61.0075 90.5261 61.5961 90.5664C60.4171 90.4839 59.2362 90.4839 58.0582 90.5664C58.6458 90.5261 59.2363 90.5064 59.8276 90.5064H59.8267Z" fill="#37AFFF" fill-opacity="0.5"/>
<path d="M69.4741 95.5812L69.2192 95.4828C63.075 93.1089 56.5793 93.1089 50.4351 95.4828L50.1802 95.5812V94.3029H50.5551V94.6703C53.5587 93.5438 56.6768 92.973 59.8276 92.973C62.9785 92.973 66.0965 93.5438 69.1002 94.6703V94.3029H69.4751V95.5812H69.4741ZM59.8267 93.3385C60.4181 93.3385 61.0075 93.3582 61.5961 93.3985C60.4171 93.316 59.2362 93.316 58.0582 93.3985C58.6458 93.3582 59.2363 93.3385 59.8276 93.3385H59.8267Z" fill="#37AFFF" fill-opacity="0.5"/>
<path d="M69.4741 98.4143L69.2192 98.316C63.075 95.942 56.5793 95.942 50.4351 98.316L50.1802 98.4143V97.136H50.5551V97.5034C53.5587 96.3769 56.6768 95.8062 59.8276 95.8062C62.9785 95.8062 66.0965 96.3769 69.1002 97.5034V97.136H69.4751V98.4143H69.4741ZM59.8267 96.1717C60.4181 96.1717 61.0075 96.1913 61.5961 96.2316C60.4171 96.1492 59.2362 96.1492 58.0582 96.2316C58.6458 96.1913 59.2363 96.1717 59.8276 96.1717H59.8267Z" fill="#37AFFF" fill-opacity="0.5"/>
<path d="M69.4741 101.247L69.2192 101.148C63.075 98.7742 56.5793 98.7742 50.4351 101.148L50.1802 101.247V99.9682H50.5551V100.336C53.5587 99.2091 56.6768 98.6383 59.8276 98.6383C62.9785 98.6383 66.0965 99.2091 69.1002 100.336V99.9682H69.4751V101.247H69.4741ZM59.8267 99.0038C60.4321 99.0038 61.0366 99.0244 61.6392 99.0666C60.4312 98.9794 59.2213 98.9794 58.0142 99.0666C58.6168 99.0244 59.2213 99.0038 59.8267 99.0038Z" fill="#37AFFF" fill-opacity="0.5"/>
<path d="M69.4741 104.08L69.2192 103.981C63.075 101.607 56.5793 101.607 50.4351 103.981L50.1802 104.08V102.801H50.5551V103.169C53.5587 102.042 56.6768 101.472 59.8276 101.472C62.9785 101.472 66.0965 102.042 69.1002 103.169V102.801H69.4751V104.08H69.4741ZM59.8267 101.837C60.4321 101.837 61.0366 101.858 61.6392 101.9C60.4312 101.813 59.2213 101.813 58.0142 101.9C58.6168 101.858 59.2213 101.837 59.8267 101.837Z" fill="#37AFFF" fill-opacity="0.5"/>
<path d="M69.4741 107.004L69.2192 106.905C63.075 104.531 56.5793 104.531 50.4351 106.905L50.1802 107.004V105.725H50.5551V106.093C53.5587 104.966 56.6768 104.396 59.8276 104.396C62.9785 104.396 66.0965 104.966 69.1002 106.093V105.725H69.4751V107.004H69.4741ZM59.8267 104.759C59.2334 104.759 58.6393 104.78 58.046 104.822C59.2297 104.74 60.4227 104.74 61.6064 104.822C61.0132 104.78 60.4199 104.759 59.8258 104.759H59.8267Z" fill="#37AFFF" fill-opacity="0.5"/>
<path d="M69.4741 109.836L69.2192 109.738C63.075 107.364 56.5793 107.364 50.4351 109.738L50.1802 109.836V108.558H50.5551V108.925C53.5587 107.799 56.6768 107.228 59.8276 107.228C62.9785 107.228 66.0965 107.799 69.1002 108.925V108.558H69.4751V109.836H69.4741ZM59.8267 107.593C60.4321 107.593 61.0366 107.614 61.6392 107.656C60.4312 107.569 59.2213 107.569 58.0142 107.656C58.6168 107.614 59.2213 107.593 59.8267 107.593Z" fill="#37AFFF" fill-opacity="0.5"/>
<path d="M69.4741 112.669L69.2192 112.571C63.075 110.197 56.5793 110.197 50.4351 112.571L50.1802 112.669V111.391H50.5551V111.758C53.5587 110.632 56.6768 110.061 59.8276 110.061C62.9785 110.061 66.0965 110.632 69.1002 111.758V111.391H69.4751V112.669H69.4741ZM59.8267 110.426C60.4321 110.426 61.0366 110.447 61.6392 110.489C60.4312 110.402 59.2213 110.402 58.0142 110.489C58.6168 110.447 59.2213 110.426 59.8267 110.426Z" fill="#37AFFF" fill-opacity="0.5"/>
<path d="M69.4741 115.501L69.2192 115.403C63.075 113.029 56.5793 113.029 50.4351 115.403L50.1802 115.501V114.223H50.5551V114.59C53.5587 113.464 56.6768 112.893 59.8276 112.893C62.9785 112.893 66.0965 113.464 69.1002 114.59V114.223H69.4751V115.501H69.4741ZM59.8267 113.259C60.4284 113.259 61.0282 113.279 61.627 113.321C60.4274 113.236 59.226 113.236 58.0264 113.321C58.6252 113.28 59.225 113.259 59.8267 113.259Z" fill="#37AFFF" fill-opacity="0.5"/>
<path d="M69.4741 118.333L69.2192 118.235C63.075 115.861 56.5793 115.861 50.4351 118.235L50.1802 118.333V117.055H50.5551V117.422C53.5587 116.296 56.6768 115.725 59.8276 115.725C62.9785 115.725 66.0965 116.296 69.1002 117.422V117.055H69.4751V118.333H69.4741ZM59.8267 116.091C60.4171 116.091 61.0066 116.11 61.5952 116.151C60.4171 116.068 59.2363 116.068 58.0591 116.151C58.6468 116.11 59.2363 116.091 59.8276 116.091H59.8267Z" fill="#37AFFF" fill-opacity="0.5"/>
<path d="M69.4741 121.167L69.2192 121.068C63.075 118.694 56.5793 118.694 50.4351 121.068L50.1802 121.167V119.888H50.5551V120.256C53.5587 119.129 56.6768 118.558 59.8276 118.558C62.9785 118.558 66.0965 119.129 69.1002 120.256V119.888H69.4751V121.167H69.4741ZM59.8267 118.924C60.4171 118.924 61.0066 118.944 61.5952 118.984C60.4171 118.901 59.2363 118.901 58.0591 118.984C58.6468 118.944 59.2363 118.924 59.8276 118.924H59.8267Z" fill="#37AFFF" fill-opacity="0.5"/>
<path d="M69.4739 123.942H68.6191V2.5127H69.4739V123.942ZM68.994 123.567H69.099V2.88757H68.994V123.567Z" fill="#37AFFF" fill-opacity="0.5"/>
<path d="M51.0339 123.942H50.1792V2.5127H51.0339V123.942ZM50.5541 123.567H50.6591V2.88757H50.5541V123.567Z" fill="#37AFFF" fill-opacity="0.5"/>
<path d="M50.7305 29.5233H42.8638V27.23H50.7305V29.5233ZM43.2386 29.1484H50.3557V27.6049H43.2386V29.1484Z" fill="#37AFFF" fill-opacity="0.5"/>
<path d="M50.555 123.941H48.1558V29.1484H50.555V123.941ZM48.5306 123.567H50.1801V29.5233H48.5306V123.567Z" fill="#37AFFF" fill-opacity="0.5"/>
<path d="M42.0413 123.941H40.6543V29.1484H42.0413V123.941ZM41.0292 123.567H41.6665V29.5233H41.0292V123.567Z" fill="#37AFFF" fill-opacity="0.5"/>
<path d="M79.7 123.941H78.313V29.1484H79.7V123.941ZM78.6879 123.567H79.3252V29.5233H78.6879V123.567Z" fill="#37AFFF" fill-opacity="0.5"/>
<path d="M76.7271 29.6142H68.8604V27.3209H76.7271V29.6142ZM69.2352 29.2394H76.3522V27.6958H69.2352V29.2394Z" fill="#37AFFF" fill-opacity="0.5"/>
<path d="M49.9574 33.0603H48.7578V31.7032H49.9574V33.0603ZM49.1327 32.6854H49.5825V32.0781H49.1327V32.6854Z" fill="#37AFFF" fill-opacity="0.5"/>
<path d="M49.9574 35.8926H48.7578V34.5355H49.9574V35.8926ZM49.1327 35.5177H49.5825V34.9104H49.1327V35.5177Z" fill="#37AFFF" fill-opacity="0.5"/>
<path d="M49.9574 38.7257H48.7578V37.3687H49.9574V38.7257ZM49.1327 38.3508H49.5825V37.7435H49.1327V38.3508Z" fill="#37AFFF" fill-opacity="0.5"/>
<path d="M49.9574 41.5579H48.7578V40.2008H49.9574V41.5579ZM49.1327 41.183H49.5825V40.5757H49.1327V41.183Z" fill="#37AFFF" fill-opacity="0.5"/>
<path d="M49.9574 44.391H48.7578V43.0339H49.9574V44.391ZM49.1327 44.0161H49.5825V43.4088H49.1327V44.0161Z" fill="#37AFFF" fill-opacity="0.5"/>
<path d="M49.9574 47.1323H48.7578V45.7753H49.9574V47.1323ZM49.1327 46.7574H49.5825V46.1501H49.1327V46.7574Z" fill="#37AFFF" fill-opacity="0.5"/>
<path d="M49.9574 49.6908H48.7578V48.3337H49.9574V49.6908ZM49.1327 49.3159H49.5825V48.7086H49.1327V49.3159Z" fill="#37AFFF" fill-opacity="0.5"/>
<path d="M49.9574 52.5229H48.7578V51.1659H49.9574V52.5229ZM49.1327 52.1481H49.5825V51.5408H49.1327V52.1481Z" fill="#37AFFF" fill-opacity="0.5"/>
<path d="M49.9574 55.3551H48.7578V53.998H49.9574V55.3551ZM49.1327 54.9802H49.5825V54.3729H49.1327V54.9802Z" fill="#37AFFF" fill-opacity="0.5"/>
<path d="M49.9574 58.1883H48.7578V56.8313H49.9574V58.1883ZM49.1327 57.8135H49.5825V57.2062H49.1327V57.8135Z" fill="#37AFFF" fill-opacity="0.5"/>
<path d="M49.9574 61.0205H48.7578V59.6635H49.9574V61.0205ZM49.1327 60.6456H49.5825V60.0383H49.1327V60.6456Z" fill="#37AFFF" fill-opacity="0.5"/>
<path d="M49.9574 63.7617H48.7578V62.4047H49.9574V63.7617ZM49.1327 63.3868H49.5825V62.7795H49.1327V63.3868Z" fill="#37AFFF" fill-opacity="0.5"/>
<path d="M49.9574 66.503H48.7578V65.146H49.9574V66.503ZM49.1327 66.1282H49.5825V65.5209H49.1327V66.1282Z" fill="#37AFFF" fill-opacity="0.5"/>
<path d="M49.9574 69.3361H48.7578V67.979H49.9574V69.3361ZM49.1327 68.9612H49.5825V68.3539H49.1327V68.9612Z" fill="#37AFFF" fill-opacity="0.5"/>
<path d="M49.9574 72.1683H48.7578V70.8113H49.9574V72.1683ZM49.1327 71.7935H49.5825V71.1862H49.1327V71.7935Z" fill="#37AFFF" fill-opacity="0.5"/>
<path d="M49.9574 75.0015H48.7578V73.6444H49.9574V75.0015ZM49.1327 74.6266H49.5825V74.0193H49.1327V74.6266Z" fill="#37AFFF" fill-opacity="0.5"/>
<path d="M49.9574 77.8336H48.7578V76.4766H49.9574V77.8336ZM49.1327 77.4587H49.5825V76.8514H49.1327V77.4587Z" fill="#37AFFF" fill-opacity="0.5"/>
<path d="M49.9574 80.5749H48.7578V79.2179H49.9574V80.5749ZM49.1327 80.2001H49.5825V79.5928H49.1327V80.2001Z" fill="#37AFFF" fill-opacity="0.5"/>
<path d="M49.9574 83.2244H48.7578V81.8673H49.9574V83.2244ZM49.1327 82.8495H49.5825V82.2422H49.1327V82.8495Z" fill="#37AFFF" fill-opacity="0.5"/>
<path d="M49.9574 86.0575H48.7578V84.7004H49.9574V86.0575ZM49.1327 85.6826H49.5825V85.0753H49.1327V85.6826Z" fill="#37AFFF" fill-opacity="0.5"/>
<path d="M49.9574 88.8898H48.7578V87.5327H49.9574V88.8898ZM49.1327 88.5149H49.5825V87.9076H49.1327V88.5149Z" fill="#37AFFF" fill-opacity="0.5"/>
<path d="M49.9574 91.7229H48.7578V90.3658H49.9574V91.7229ZM49.1327 91.348H49.5825V90.7407H49.1327V91.348Z" fill="#37AFFF" fill-opacity="0.5"/>
<path d="M49.9574 94.5552H48.7578V93.1981H49.9574V94.5552ZM49.1327 94.1803H49.5825V93.573H49.1327V94.1803Z" fill="#37AFFF" fill-opacity="0.5"/>
<path d="M49.9574 97.2964H48.7578V95.9393H49.9574V97.2964ZM49.1327 96.9215H49.5825V96.3142H49.1327V96.9215Z" fill="#37AFFF" fill-opacity="0.5"/>
<path d="M49.9574 100.038H48.7578V98.6805H49.9574V100.038ZM49.1327 99.6627H49.5825V99.0554H49.1327V99.6627Z" fill="#37AFFF" fill-opacity="0.5"/>
<path d="M49.9574 102.871H48.7578V101.514H49.9574V102.871ZM49.1327 102.496H49.5825V101.889H49.1327V102.496Z" fill="#37AFFF" fill-opacity="0.5"/>
<path d="M49.9574 105.703H48.7578V104.346H49.9574V105.703ZM49.1327 105.328H49.5825V104.721H49.1327V105.328Z" fill="#37AFFF" fill-opacity="0.5"/>
<path d="M49.9574 108.536H48.7578V107.179H49.9574V108.536ZM49.1327 108.161H49.5825V107.554H49.1327V108.161Z" fill="#37AFFF" fill-opacity="0.5"/>
<path d="M49.9574 111.368H48.7578V110.011H49.9574V111.368ZM49.1327 110.993H49.5825V110.386H49.1327V110.993Z" fill="#37AFFF" fill-opacity="0.5"/>
<path d="M49.9574 114.109H48.7578V112.752H49.9574V114.109ZM49.1327 113.735H49.5825V113.127H49.1327V113.735Z" fill="#37AFFF" fill-opacity="0.5"/>
<path d="M49.9574 116.942H48.7578V115.585H49.9574V116.942ZM49.1327 116.567H49.5825V115.959H49.1327V116.567Z" fill="#37AFFF" fill-opacity="0.5"/>
<path d="M49.9574 119.775H48.7578V118.418H49.9574V119.775ZM49.1327 119.4H49.5825V118.793H49.1327V119.4Z" fill="#37AFFF" fill-opacity="0.5"/>
<path d="M49.9574 122.607H48.7578V121.25H49.9574V122.607ZM49.1327 122.232H49.5825V121.625H49.1327V122.232Z" fill="#37AFFF" fill-opacity="0.5"/>
<path d="M71.4925 123.941H69.0933V29.1484H71.4925V123.941ZM69.4681 123.567H71.1176V29.5233H69.4681V123.567Z" fill="#37AFFF" fill-opacity="0.5"/>
<path d="M70.9721 33.0603H69.7725V31.7032H70.9721V33.0603ZM70.1473 32.6854H70.5972V32.0781H70.1473V32.6854Z" fill="#37AFFF" fill-opacity="0.5"/>
<path d="M70.9721 35.8926H69.7725V34.5355H70.9721V35.8926ZM70.1473 35.5177H70.5972V34.9104H70.1473V35.5177Z" fill="#37AFFF" fill-opacity="0.5"/>
<path d="M70.9721 38.7257H69.7725V37.3687H70.9721V38.7257ZM70.1473 38.3508H70.5972V37.7435H70.1473V38.3508Z" fill="#37AFFF" fill-opacity="0.5"/>
<path d="M70.9721 41.5579H69.7725V40.2008H70.9721V41.5579ZM70.1473 41.183H70.5972V40.5757H70.1473V41.183Z" fill="#37AFFF" fill-opacity="0.5"/>
<path d="M70.9721 44.391H69.7725V43.0339H70.9721V44.391ZM70.1473 44.0161H70.5972V43.4088H70.1473V44.0161Z" fill="#37AFFF" fill-opacity="0.5"/>
<path d="M70.9721 47.1323H69.7725V45.7753H70.9721V47.1323ZM70.1473 46.7574H70.5972V46.1501H70.1473V46.7574Z" fill="#37AFFF" fill-opacity="0.5"/>
<path d="M70.9721 49.6908H69.7725V48.3337H70.9721V49.6908ZM70.1473 49.3159H70.5972V48.7086H70.1473V49.3159Z" fill="#37AFFF" fill-opacity="0.5"/>
<path d="M70.9721 52.5229H69.7725V51.1659H70.9721V52.5229ZM70.1473 52.1481H70.5972V51.5408H70.1473V52.1481Z" fill="#37AFFF" fill-opacity="0.5"/>
<path d="M70.9721 55.3551H69.7725V53.998H70.9721V55.3551ZM70.1473 54.9802H70.5972V54.3729H70.1473V54.9802Z" fill="#37AFFF" fill-opacity="0.5"/>
<path d="M70.9721 58.1883H69.7725V56.8313H70.9721V58.1883ZM70.1473 57.8135H70.5972V57.2062H70.1473V57.8135Z" fill="#37AFFF" fill-opacity="0.5"/>
<path d="M70.9721 61.0205H69.7725V59.6635H70.9721V61.0205ZM70.1473 60.6456H70.5972V60.0383H70.1473V60.6456Z" fill="#37AFFF" fill-opacity="0.5"/>
<path d="M70.9721 63.7617H69.7725V62.4047H70.9721V63.7617ZM70.1473 63.3868H70.5972V62.7795H70.1473V63.3868Z" fill="#37AFFF" fill-opacity="0.5"/>
<path d="M70.9721 66.503H69.7725V65.146H70.9721V66.503ZM70.1473 66.1282H70.5972V65.5209H70.1473V66.1282Z" fill="#37AFFF" fill-opacity="0.5"/>
<path d="M70.9721 69.3361H69.7725V67.979H70.9721V69.3361ZM70.1473 68.9612H70.5972V68.3539H70.1473V68.9612Z" fill="#37AFFF" fill-opacity="0.5"/>
<path d="M70.9721 72.1683H69.7725V70.8113H70.9721V72.1683ZM70.1473 71.7935H70.5972V71.1862H70.1473V71.7935Z" fill="#37AFFF" fill-opacity="0.5"/>
<path d="M70.9721 75.0015H69.7725V73.6444H70.9721V75.0015ZM70.1473 74.6266H70.5972V74.0193H70.1473V74.6266Z" fill="#37AFFF" fill-opacity="0.5"/>
<path d="M70.9721 77.8336H69.7725V76.4766H70.9721V77.8336ZM70.1473 77.4587H70.5972V76.8514H70.1473V77.4587Z" fill="#37AFFF" fill-opacity="0.5"/>
<path d="M70.9721 80.5749H69.7725V79.2179H70.9721V80.5749ZM70.1473 80.2001H70.5972V79.5928H70.1473V80.2001Z" fill="#37AFFF" fill-opacity="0.5"/>
<path d="M70.9721 83.2244H69.7725V81.8673H70.9721V83.2244ZM70.1473 82.8495H70.5972V82.2422H70.1473V82.8495Z" fill="#37AFFF" fill-opacity="0.5"/>
<path d="M70.9721 86.0575H69.7725V84.7004H70.9721V86.0575ZM70.1473 85.6826H70.5972V85.0753H70.1473V85.6826Z" fill="#37AFFF" fill-opacity="0.5"/>
<path d="M70.9721 88.8898H69.7725V87.5327H70.9721V88.8898ZM70.1473 88.5149H70.5972V87.9076H70.1473V88.5149Z" fill="#37AFFF" fill-opacity="0.5"/>
<path d="M70.9721 91.7229H69.7725V90.3658H70.9721V91.7229ZM70.1473 91.348H70.5972V90.7407H70.1473V91.348Z" fill="#37AFFF" fill-opacity="0.5"/>
<path d="M70.9721 94.5552H69.7725V93.1981H70.9721V94.5552ZM70.1473 94.1803H70.5972V93.573H70.1473V94.1803Z" fill="#37AFFF" fill-opacity="0.5"/>
<path d="M70.9721 97.2964H69.7725V95.9393H70.9721V97.2964ZM70.1473 96.9215H70.5972V96.3142H70.1473V96.9215Z" fill="#37AFFF" fill-opacity="0.5"/>
<path d="M70.9721 100.038H69.7725V98.6805H70.9721V100.038ZM70.1473 99.6627H70.5972V99.0554H70.1473V99.6627Z" fill="#37AFFF" fill-opacity="0.5"/>
<path d="M70.9721 102.871H69.7725V101.514H70.9721V102.871ZM70.1473 102.496H70.5972V101.889H70.1473V102.496Z" fill="#37AFFF" fill-opacity="0.5"/>
<path d="M70.9721 105.703H69.7725V104.346H70.9721V105.703ZM70.1473 105.328H70.5972V104.721H70.1473V105.328Z" fill="#37AFFF" fill-opacity="0.5"/>
<path d="M70.9721 108.536H69.7725V107.179H70.9721V108.536ZM70.1473 108.161H70.5972V107.554H70.1473V108.161Z" fill="#37AFFF" fill-opacity="0.5"/>
<path d="M70.9721 111.368H69.7725V110.011H70.9721V111.368ZM70.1473 110.993H70.5972V110.386H70.1473V110.993Z" fill="#37AFFF" fill-opacity="0.5"/>
<path d="M70.9721 114.109H69.7725V112.752H70.9721V114.109ZM70.1473 113.735H70.5972V113.127H70.1473V113.735Z" fill="#37AFFF" fill-opacity="0.5"/>
<path d="M70.9721 116.942H69.7725V115.585H70.9721V116.942ZM70.1473 116.567H70.5972V115.959H70.1473V116.567Z" fill="#37AFFF" fill-opacity="0.5"/>
<path d="M70.9721 119.775H69.7725V118.418H70.9721V119.775ZM70.1473 119.4H70.5972V118.793H70.1473V119.4Z" fill="#37AFFF" fill-opacity="0.5"/>
<path d="M70.9721 122.607H69.7725V121.25H70.9721V122.607ZM70.1473 122.232H70.5972V121.625H70.1473V122.232Z" fill="#37AFFF" fill-opacity="0.5"/>
<path d="M60.7235 30.3106H59.4995V0.31958H60.7235V30.3106ZM59.8744 29.9357H60.3486V0.694456H59.8744V29.9357Z" fill="#37AFFF" fill-opacity="0.5"/>
<path d="M63.7852 123.942H56.4395V29.4427H63.7852V123.942ZM56.8143 123.567H63.4103V29.8176H56.8143V123.567Z" fill="#37AFFF" fill-opacity="0.5"/>
<path d="M63.223 123.942H57.002V29.9358H63.223V123.942ZM57.3768 123.567H62.8482V30.3107H57.3768V123.567Z" fill="#37AFFF" fill-opacity="0.5"/>
<path d="M63.223 123.942H57.002V101.792H63.223V123.942ZM57.3768 123.567H62.8482V102.167H57.3768V123.567Z" fill="#37AFFF" fill-opacity="0.5"/>
<path d="M63.3208 34.275H56.9048V33.4427H63.3208V34.275ZM57.2797 33.9001H62.9459V33.8176H57.2797V33.9001Z" fill="#37AFFF" fill-opacity="0.5"/>
<path d="M63.3208 37.1072H56.9048V36.2759H63.3208V37.1072ZM57.2797 36.7323H62.9459V36.6498H57.2797V36.7323Z" fill="#37AFFF" fill-opacity="0.5"/>
<path d="M63.3208 39.9403H56.9048V39.108H63.3208V39.9403ZM57.2797 39.5654H62.9459V39.4829H57.2797V39.5654Z" fill="#37AFFF" fill-opacity="0.5"/>
<path d="M63.3208 42.7724H56.9048V41.9402H63.3208V42.7724ZM57.2797 42.3975H62.9459V42.3151H57.2797V42.3975Z" fill="#37AFFF" fill-opacity="0.5"/>
<path d="M63.3208 45.6057H56.9048V44.7734H63.3208V45.6057ZM57.2797 45.2308H62.9459V45.1483H57.2797V45.2308Z" fill="#37AFFF" fill-opacity="0.5"/>
<path d="M63.3208 48.3469H56.9048V47.5146H63.3208V48.3469ZM57.2797 47.972H62.9459V47.8895H57.2797V47.972Z" fill="#37AFFF" fill-opacity="0.5"/>
<path d="M63.3208 51.179H56.9048V50.3468H63.3208V51.179ZM57.2797 50.8042H62.9459V50.7217H57.2797V50.8042Z" fill="#37AFFF" fill-opacity="0.5"/>
<path d="M63.3208 54.0113H56.9048V53.1791H63.3208V54.0113ZM57.2797 53.6364H62.9459V53.554H57.2797V53.6364Z" fill="#37AFFF" fill-opacity="0.5"/>
<path d="M63.3208 56.8443H56.9048V56.0121H63.3208V56.8443ZM57.2797 56.4694H62.9459V56.387H57.2797V56.4694Z" fill="#37AFFF" fill-opacity="0.5"/>
<path d="M63.3208 59.6765H56.9048V58.8442H63.3208V59.6765ZM57.2797 59.3016H62.9459V59.2191H57.2797V59.3016Z" fill="#37AFFF" fill-opacity="0.5"/>
<path d="M63.3208 62.5096H56.9048V61.6783H63.3208V62.5096ZM57.2797 62.1348H62.9459V62.0532H57.2797V62.1348Z" fill="#37AFFF" fill-opacity="0.5"/>
<path d="M63.3208 65.3417H56.9048V64.5095H63.3208V65.3417ZM57.2797 64.9669H62.9459V64.8844H57.2797V64.9669Z" fill="#37AFFF" fill-opacity="0.5"/>
<path d="M63.3208 68.175H56.9048V67.3438H63.3208V68.175ZM57.2797 67.8002H62.9459V67.7186H57.2797V67.8002Z" fill="#37AFFF" fill-opacity="0.5"/>
<path d="M63.3208 71.0073H56.9048V70.175H63.3208V71.0073ZM57.2797 70.6324H62.9459V70.5499H57.2797V70.6324Z" fill="#37AFFF" fill-opacity="0.5"/>
<path d="M63.3208 73.8403H56.9048V73.0081H63.3208V73.8403ZM57.2797 73.4654H62.9459V73.3829H57.2797V73.4654Z" fill="#37AFFF" fill-opacity="0.5"/>
<path d="M63.3208 76.6726H56.9048V75.8403H63.3208V76.6726ZM57.2797 76.2977H62.9459V76.2152H57.2797V76.2977Z" fill="#37AFFF" fill-opacity="0.5"/>
<path d="M63.3208 79.5047H56.9048V78.6725H63.3208V79.5047ZM57.2797 79.1298H62.9459V79.0474H57.2797V79.1298Z" fill="#37AFFF" fill-opacity="0.5"/>
<path d="M63.3208 82.3377H56.9048V81.5055H63.3208V82.3377ZM57.2797 81.9628H62.9459V81.8804H57.2797V81.9628Z" fill="#37AFFF" fill-opacity="0.5"/>
<path d="M63.3208 85.17H56.9048V84.3378H63.3208V85.17ZM57.2797 84.7951H62.9459V84.7126H57.2797V84.7951Z" fill="#37AFFF" fill-opacity="0.5"/>
<path d="M63.3208 88.0031H56.9048V87.1709H63.3208V88.0031ZM57.2797 87.6282H62.9459V87.5458H57.2797V87.6282Z" fill="#37AFFF" fill-opacity="0.5"/>
<path d="M63.3208 90.8353H56.9048V90.0031H63.3208V90.8353ZM57.2797 90.4604H62.9459V90.3779H57.2797V90.4604Z" fill="#37AFFF" fill-opacity="0.5"/>
<path d="M63.3208 93.6684H56.9048V92.8362H63.3208V93.6684ZM57.2797 93.2935H62.9459V93.2111H57.2797V93.2935Z" fill="#37AFFF" fill-opacity="0.5"/>
<path d="M63.3208 96.5007H56.9048V95.6694H63.3208V96.5007ZM57.2797 96.1259H62.9459V96.0443H57.2797V96.1259Z" fill="#37AFFF" fill-opacity="0.5"/>
<path d="M63.3208 99.3337H56.9048V98.5015H63.3208V99.3337ZM57.2797 98.9588H62.9459V98.8763H57.2797V98.9588Z" fill="#37AFFF" fill-opacity="0.5"/>
<path d="M63.3208 102.166H56.9048V101.334H63.3208V102.166ZM57.2797 101.791H62.9459V101.709H57.2797V101.791Z" fill="#37AFFF" fill-opacity="0.5"/>
<path d="M63.2221 105.273H57.001V104.287H63.2221V105.273ZM57.3759 104.898H62.8472V104.662H57.3759V104.898Z" fill="#37AFFF" fill-opacity="0.5"/>
<path d="M61.6185 105.273H58.6045V103.059H61.6185V105.273ZM58.9794 104.898H61.2436V103.434H58.9794V104.898Z" fill="#37AFFF" fill-opacity="0.5"/>
<path d="M63.2221 109.019H57.001V108.033H63.2221V109.019ZM57.3759 108.644H62.8472V108.408H57.3759V108.644Z" fill="#37AFFF" fill-opacity="0.5"/>
<path d="M61.6185 109.019H58.6045V106.805H61.6185V109.019ZM58.9794 108.644H61.2436V107.18H58.9794V108.644Z" fill="#37AFFF" fill-opacity="0.5"/>
<path d="M63.2221 112.766H57.001V111.78H63.2221V112.766ZM57.3759 112.391H62.8472V112.155H57.3759V112.391Z" fill="#37AFFF" fill-opacity="0.5"/>
<path d="M61.6185 112.766H58.6045V110.552H61.6185V112.766ZM58.9794 112.391H61.2436V110.927H58.9794V112.391Z" fill="#37AFFF" fill-opacity="0.5"/>
<path d="M63.2221 116.512H57.001V115.526H63.2221V116.512ZM57.3759 116.137H62.8472V115.901H57.3759V116.137Z" fill="#37AFFF" fill-opacity="0.5"/>
<path d="M61.6185 116.511H58.6045V114.298H61.6185V116.511ZM58.9794 116.137H61.2436V114.673H58.9794V116.137Z" fill="#37AFFF" fill-opacity="0.5"/>
<path d="M63.2221 120.258H57.001V119.272H63.2221V120.258ZM57.3759 119.884H62.8472V119.647H57.3759V119.884Z" fill="#37AFFF" fill-opacity="0.5"/>
<path d="M61.6185 120.258H58.6045V118.045H61.6185V120.258ZM58.9794 119.884H61.2436V118.42H58.9794V119.884Z" fill="#37AFFF" fill-opacity="0.5"/>
<path d="M63.2221 124.004H57.001V123.018H63.2221V124.004ZM57.3759 123.629H62.8472V123.393H57.3759V123.629Z" fill="#37AFFF" fill-opacity="0.5"/>
<path d="M61.6185 124.004H58.6045V121.791H61.6185V124.004ZM58.9794 123.629H61.2436V122.166H58.9794V123.629Z" fill="#37AFFF" fill-opacity="0.5"/>
<g opacity="0.15">
<path d="M52.8127 124.004H50.3545V27.2291H52.8127V124.004ZM50.7294 123.629H52.4379V27.604H50.7294V123.629Z" fill="#37AFFF" fill-opacity="0.5"/>
</g>
<g opacity="0.25">
<path d="M59.161 101.937H58.3784V29.9254H59.161V101.938V101.937ZM58.7533 101.562H58.7861V30.3003H58.7533V101.563V101.562Z" fill="#37AFFF" fill-opacity="0.5"/>
</g>
<g opacity="0.25">
<path d="M61.7494 101.937H60.9678V29.9254H61.7494V101.938V101.937ZM61.3426 101.562H61.3745V30.3003H61.3426V101.563V101.562Z" fill="#37AFFF" fill-opacity="0.5"/>
</g>
<g opacity="0.25">
<path d="M44.4959 123.393H43.7134V29.9254H44.4959V123.393ZM44.0883 123.018H44.1211V30.3003H44.0883V123.018Z" fill="#37AFFF" fill-opacity="0.5"/>
</g>
<g opacity="0.25">
<path d="M47.0858 123.393H46.3032V29.9254H47.0858V123.393ZM46.6781 123.018H46.7109V30.3003H46.6781V123.018Z" fill="#37AFFF" fill-opacity="0.5"/>
</g>
<g opacity="0.25">
<path d="M73.7132 123.393H72.9307V29.9254H73.7132V123.393ZM73.3055 123.018H73.3384V30.3003H73.3055V123.018Z" fill="#37AFFF" fill-opacity="0.5"/>
</g>
<g opacity="0.25">
<path d="M76.3021 123.393H75.5195V29.9254H76.3021V123.393ZM75.8944 123.018H75.9272V30.3003H75.8944V123.018Z" fill="#37AFFF" fill-opacity="0.5"/>
</g>
<g style="mix-blend-mode:color-burn" opacity="0.4">
<path d="M63.2218 124.004H57.0017V123.941H52.8143V124.004H50.3561V123.941H48.1556V123.639H42.0413V123.941H40.6543V29.1485H42.5568V4.06647H50.1799V1.84064L50.2999 1.79472C53.3813 0.604488 56.5875 0 59.8273 0C63.0672 0 66.2733 0.60355 69.3548 1.79472L69.4748 1.84064V4.06647H77.0979V29.1485H79.7004V123.942H78.3134V123.64H71.4935V123.942H63.2228V124.005L63.2218 124.004ZM57.3756 123.629H62.847V123.566H71.1177V123.264H78.6874V123.566H79.3247V29.5234H78.6874V31.0763H78.3022V29.5234H76.7221V4.44134H69.099V2.09837C63.0307 -0.213679 56.6231 -0.213679 50.5548 2.09837V4.44134H42.9317V29.5234H41.0292V123.567H41.6665V123.265H48.5304V123.567H50.731V123.63H52.4395V123.567H57.3766V123.63L57.3756 123.629ZM78.6874 123.182H78.3022V120.432H78.6874V123.182ZM78.6874 120.35H78.3022V117.6H78.6874V120.35ZM78.6874 117.518H78.3022V114.767H78.6874V117.518ZM78.6874 114.686H78.3022V111.935H78.6874V114.686ZM78.6874 111.854H78.3022V109.103H78.6874V111.854ZM78.6874 109.021H78.3022V105.997H78.6874V109.021ZM78.6874 105.915H78.3022V103.072H78.6874V105.915ZM78.6874 102.991H78.3022V99.6917H78.6874V102.991ZM78.6874 99.6093H78.3022V96.8586H78.6874V99.6093ZM78.6874 96.7771H78.3022V94.1173H78.6874V96.7771ZM78.6874 94.0358H78.3022V91.1942H78.6874V94.0358ZM78.6874 91.1117H78.3022V88.3611H78.6874V91.1117ZM78.6874 88.2796H78.3022V85.5289H78.6874V88.2796ZM78.6874 85.4474H78.3022V82.6967H78.6874V85.4474ZM78.6874 82.6152H78.3022V79.8645H78.6874V82.6152ZM78.6874 79.783H78.3022V77.0323H78.6874V79.783ZM78.6874 76.9508H78.3022V73.9265H78.6874V76.9508ZM78.6874 73.844H78.3022V71.0015H78.6874V73.844ZM78.6874 70.92H78.3022V68.1693H78.6874V70.92ZM78.6874 68.0878H78.3022V65.3371H78.6874V68.0878ZM78.6874 65.2556H78.3022V62.5959H78.6874V65.2556ZM78.6874 62.5143H78.3022V59.6728H78.6874V62.5143ZM78.6874 59.5903H78.3022V56.8396H78.6874V59.5903ZM78.6874 56.7581H78.3022V54.0075H78.6874V56.7581ZM78.6874 53.9259H78.3022V51.1753H78.6874V53.9259ZM78.6874 51.0937H78.3022V48.3431H78.6874V51.0937ZM78.6874 48.2615H78.3022V45.5109H78.6874V48.2615ZM78.6874 45.4294H78.3022V42.405H78.6874V45.4294ZM78.6874 42.3226H78.3022V39.481H78.6874V42.3226ZM78.6874 39.3985H78.3022V36.7388H78.6874V39.3985ZM78.6874 36.6573H78.3022V33.9066H78.6874V36.6573ZM78.6874 33.8241H78.3022V31.1653H78.6874V33.8241Z" fill="#37AFFF" fill-opacity="0.5"/>
</g>
<path d="M38.8124 124.074H14.1699V43.6693H38.8124V124.074ZM14.3574 123.886H38.625V43.8567H14.3574V123.886Z" fill="#37AFFF"/>
<path d="M38.8124 121.635H14.1699V121.007H38.8124V121.635ZM14.3574 121.448H38.625V121.195H14.3574V121.448Z" fill="#37AFFF"/>
<path d="M38.8124 118.902H14.1699V118.274H38.8124V118.902ZM14.3574 118.715H38.625V118.462H14.3574V118.715Z" fill="#37AFFF"/>
<path d="M38.8124 116.17H14.1699V115.542H38.8124V116.17ZM14.3574 115.983H38.625V115.73H14.3574V115.983Z" fill="#37AFFF"/>
<path d="M38.8124 113.438H14.1699V112.81H38.8124V113.438ZM14.3574 113.251H38.625V112.998H14.3574V113.251Z" fill="#37AFFF"/>
<path d="M38.8124 110.707H14.1699V110.079H38.8124V110.707ZM14.3574 110.519H38.625V110.266H14.3574V110.519Z" fill="#37AFFF"/>
<path d="M38.8124 107.975H14.1699V107.347H38.8124V107.975ZM14.3574 107.787H38.625V107.534H14.3574V107.787Z" fill="#37AFFF"/>
<path d="M38.8124 105.243H14.1699V104.615H38.8124V105.243ZM14.3574 105.055H38.625V104.802H14.3574V105.055Z" fill="#37AFFF"/>
<path d="M38.8124 102.51H14.1699V101.882H38.8124V102.51ZM14.3574 102.322H38.625V102.069H14.3574V102.322Z" fill="#37AFFF"/>
<path d="M38.8124 99.7781H14.1699V99.1501H38.8124V99.7781ZM14.3574 99.5906H38.625V99.3376H14.3574V99.5906Z" fill="#37AFFF"/>
<path d="M38.8124 97.1341H14.1699V96.5062H38.8124V97.1341ZM14.3574 96.9467H38.625V96.6937H14.3574V96.9467Z" fill="#37AFFF"/>
<path d="M38.8124 94.4023H14.1699V93.7744H38.8124V94.4023ZM14.3574 94.2149H38.625V93.9619H14.3574V94.2149Z" fill="#37AFFF"/>
<path d="M38.8124 91.6704H14.1699V91.0425H38.8124V91.6704ZM14.3574 91.483H38.625V91.2299H14.3574V91.483Z" fill="#37AFFF"/>
<path d="M38.8124 88.9375H14.1699V88.3096H38.8124V88.9375ZM14.3574 88.75H38.625V88.497H14.3574V88.75Z" fill="#37AFFF"/>
<path d="M38.8124 86.2056H14.1699V85.5776H38.8124V86.2056ZM14.3574 86.0181H38.625V85.7651H14.3574V86.0181Z" fill="#37AFFF"/>
<path d="M38.8124 83.4736H14.1699V82.8457H38.8124V83.4736ZM14.3574 83.2862H38.625V83.0331H14.3574V83.2862Z" fill="#37AFFF"/>
<path d="M38.8124 80.7418H14.1699V80.1139H38.8124V80.7418ZM14.3574 80.5544H38.625V80.3013H14.3574V80.5544Z" fill="#37AFFF"/>
<path d="M38.8124 78.0099H14.1699V77.382H38.8124V78.0099ZM14.3574 77.8224H38.625V77.5694H14.3574V77.8224Z" fill="#37AFFF"/>
<path d="M38.8124 75.2779H14.1699V74.65H38.8124V75.2779ZM14.3574 75.0905H38.625V74.8375H14.3574V75.0905Z" fill="#37AFFF"/>
<path d="M38.8124 72.545H14.1699V71.9171H38.8124V72.545ZM14.3574 72.3576H38.625V72.1046H14.3574V72.3576Z" fill="#37AFFF"/>
<path d="M38.8124 69.9012H14.1699V69.2733H38.8124V69.9012ZM14.3574 69.7138H38.625V69.4608H14.3574V69.7138Z" fill="#37AFFF"/>
<path d="M38.8124 67.0813H14.1699V66.4534H38.8124V67.0813ZM14.3574 66.8938H38.625V66.6408H14.3574V66.8938Z" fill="#37AFFF"/>
<path d="M38.8124 64.3494H14.1699V63.7214H38.8124V64.3494ZM14.3574 64.1619H38.625V63.9089H14.3574V64.1619Z" fill="#37AFFF"/>
<path d="M38.8124 61.6174H14.1699V60.9895H38.8124V61.6174ZM14.3574 61.43H38.625V61.1769H14.3574V61.43Z" fill="#37AFFF"/>
<path d="M38.8124 58.8856H14.1699V58.2577H38.8124V58.8856ZM14.3574 58.6982H38.625V58.4451H14.3574V58.6982Z" fill="#37AFFF"/>
<path d="M38.8124 56.1527H14.1699V55.5248H38.8124V56.1527ZM14.3574 55.9653H38.625V55.7122H14.3574V55.9653Z" fill="#37AFFF"/>
<path d="M38.8124 53.4208H14.1699V52.7928H38.8124V53.4208ZM14.3574 53.2333H38.625V52.9803H14.3574V53.2333Z" fill="#37AFFF"/>
<path d="M38.8124 50.6888H14.1699V50.0609H38.8124V50.6888ZM14.3574 50.5014H38.625V50.2484H14.3574V50.5014Z" fill="#37AFFF"/>
<path d="M38.8124 47.9569H14.1699V47.329H38.8124V47.9569ZM14.3574 47.7695H38.625V47.5164H14.3574V47.7695Z" fill="#37AFFF"/>
<path d="M38.8124 45.2251H14.1699V44.5972H38.8124V45.2251ZM14.3574 45.0376H38.625V44.7846H14.3574V45.0376Z" fill="#37AFFF"/>
<path d="M34.1418 119.006H18.6641V48.5597H34.1418V119.005V119.006ZM18.8515 118.819H33.9543V48.7471H18.8515V118.818V118.819Z" fill="#37AFFF"/>
<path d="M33.0846 117.99H19.7222V49.5764H33.0846V117.99ZM19.9096 117.803H32.8972V49.7639H19.9096V117.803Z" fill="#37AFFF"/>
<path d="M33.0846 117.99H19.7222V55.0375H33.0846V117.99ZM19.9096 117.803H32.8972V55.2249H19.9096V117.803Z" fill="#37AFFF"/>
<path d="M27.0002 48.747H25.8071V43.6487H27.0002V48.747ZM25.9946 48.5596H26.8127V43.8361H25.9946V48.5596Z" fill="#37AFFF"/>
<path d="M33.0846 53.895H19.7222V53.3018H33.0846V53.895ZM19.9096 53.7076H32.8972V53.4892H19.9096V53.7076Z" fill="#37AFFF"/>
<path d="M33.0846 52.4219H19.7222V51.8286H33.0846V52.4219ZM19.9096 52.2344H32.8972V52.0161H19.9096V52.2344Z" fill="#37AFFF"/>
<path d="M33.0846 50.9476H19.7222V50.3544H33.0846V50.9476ZM19.9096 50.7602H32.8972V50.5418H19.9096V50.7602Z" fill="#37AFFF"/>
<path d="M33.0846 58.4779H19.7222V57.8846H33.0846V58.4779ZM19.9096 58.2904H32.8972V58.0721H19.9096V58.2904Z" fill="#37AFFF"/>
<path d="M33.0846 57.0046H19.7222V56.4114H33.0846V57.0046ZM19.9096 56.8172H32.8972V56.5988H19.9096V56.8172Z" fill="#37AFFF"/>
<path d="M33.0846 55.5305H19.7222V54.9373H33.0846V55.5305ZM19.9096 55.3431H32.8972V55.1247H19.9096V55.3431Z" fill="#37AFFF"/>
<g opacity="0.6">
<path d="M26.7002 62.7701H26.1069V55.1404H26.7002V62.7701ZM26.2944 62.5826H26.5127V55.3278H26.2944V62.5826Z" fill="#37AFFF"/>
</g>
<g opacity="0.6">
<path d="M24.8496 62.7701H24.2563V55.1404H24.8496V62.7701ZM24.4438 62.5826H24.6622V55.3278H24.4438V62.5826Z" fill="#37AFFF"/>
</g>
<g opacity="0.6">
<path d="M22.9995 62.7701H22.4062V55.1404H22.9995V62.7701ZM22.5937 62.5826H22.8121V55.3278H22.5937V62.5826Z" fill="#37AFFF"/>
</g>
<g opacity="0.6">
<path d="M21.147 62.7701H20.5537V55.1404H21.147V62.7701ZM20.7411 62.5826H20.9595V55.3278H20.7411V62.5826Z" fill="#37AFFF"/>
</g>
<g opacity="0.6">
<path d="M28.4629 62.7701H27.8696V55.1404H28.4629V62.7701ZM28.0571 62.5826H28.2754V55.3278H28.0571V62.5826Z" fill="#37AFFF"/>
</g>
<g opacity="0.6">
<path d="M30.3134 62.7701H29.7202V55.1404H30.3134V62.7701ZM29.9077 62.5826H30.126V55.3278H29.9077V62.5826Z" fill="#37AFFF"/>
</g>
<g opacity="0.6">
<path d="M32.1645 62.7701H31.5713V55.1404H32.1645V62.7701ZM31.7587 62.5826H31.9771V55.3278H31.7587V62.5826Z" fill="#37AFFF"/>
</g>
<g opacity="0.6">
<path d="M26.7002 55.1246H26.1069V49.5876H26.7002V55.1246ZM26.2944 54.9371H26.5127V49.7751H26.2944V54.9371Z" fill="#37AFFF"/>
</g>
<g opacity="0.6">
<path d="M24.8496 55.1246H24.2563V49.5876H24.8496V55.1246ZM24.4438 54.9371H24.6622V49.7751H24.4438V54.9371Z" fill="#37AFFF"/>
</g>
<g opacity="0.6">
<path d="M22.9995 55.1246H22.4062V49.5876H22.9995V55.1246ZM22.5937 54.9371H22.8121V49.7751H22.5937V54.9371Z" fill="#37AFFF"/>
</g>
<g opacity="0.6">
<path d="M21.147 55.1246H20.5537V49.5876H21.147V55.1246ZM20.7411 54.9371H20.9595V49.7751H20.7411V54.9371Z" fill="#37AFFF"/>
</g>
<g opacity="0.6">
<path d="M28.4629 55.1246H27.8696V49.5876H28.4629V55.1246ZM28.0571 54.9371H28.2754V49.7751H28.0571V54.9371Z" fill="#37AFFF"/>
</g>
<g opacity="0.6">
<path d="M30.3134 55.1246H29.7202V49.5876H30.3134V55.1246ZM29.9077 54.9371H30.126V49.7751H29.9077V54.9371Z" fill="#37AFFF"/>
</g>
<g opacity="0.6">
<path d="M32.1645 55.1246H31.5713V49.5876H32.1645V55.1246ZM31.7587 54.9371H31.9771V49.7751H31.7587V54.9371Z" fill="#37AFFF"/>
</g>
<path d="M33.0846 62.9725H19.7222V62.3793H33.0846V62.9725ZM19.9096 62.7851H32.8972V62.5667H19.9096V62.7851Z" fill="#37AFFF"/>
<path d="M33.0846 61.4994H19.7222V60.9061H33.0846V61.4994ZM19.9096 61.3119H32.8972V61.0936H19.9096V61.3119Z" fill="#37AFFF"/>
<path d="M33.0846 60.0252H19.7222V59.432H33.0846V60.0252ZM19.9096 59.8378H32.8972V59.6194H19.9096V59.8378Z" fill="#37AFFF"/>
<path d="M33.0846 63.2257H19.7222V62.7074H33.0846V63.2257ZM19.9096 63.0382H32.8972V62.8948H19.9096V63.0382Z" fill="#37AFFF"/>
<path d="M33.0846 65.9576H19.7222V65.4393H33.0846V65.9576ZM19.9096 65.7702H32.8972V65.6268H19.9096V65.7702Z" fill="#37AFFF"/>
<path d="M33.0846 68.6895H19.7222V68.1713H33.0846V68.6895ZM19.9096 68.5021H32.8972V68.3587H19.9096V68.5021Z" fill="#37AFFF"/>
<path d="M33.0846 71.4213H19.7222V70.9031H33.0846V71.4213ZM19.9096 71.2339H32.8972V71.0905H19.9096V71.2339Z" fill="#37AFFF"/>
<path d="M33.0846 74.1541H19.7222V73.6359H33.0846V74.1541ZM19.9096 73.9667H32.8972V73.8233H19.9096V73.9667Z" fill="#37AFFF"/>
<path d="M33.0846 76.8862H19.7222V76.3679H33.0846V76.8862ZM19.9096 76.6988H32.8972V76.5554H19.9096V76.6988Z" fill="#37AFFF"/>
<path d="M33.0846 79.618H19.7222V79.0997H33.0846V79.618ZM19.9096 79.4306H32.8972V79.2872H19.9096V79.4306Z" fill="#37AFFF"/>
<path d="M33.0846 82.3501H19.7222V81.8318H33.0846V82.3501ZM19.9096 82.1626H32.8972V82.0192H19.9096V82.1626Z" fill="#37AFFF"/>
<path d="M33.0846 85.0819H19.7222V84.5636H33.0846V85.0819ZM19.9096 84.8944H32.8972V84.751H19.9096V84.8944Z" fill="#37AFFF"/>
<path d="M33.0846 87.8147H19.7222V87.2964H33.0846V87.8147ZM19.9096 87.6272H32.8972V87.4838H19.9096V87.6272Z" fill="#37AFFF"/>
<path d="M33.0846 90.5466H19.7222V90.0283H33.0846V90.5466ZM19.9096 90.3592H32.8972V90.2158H19.9096V90.3592Z" fill="#37AFFF"/>
<path d="M33.0846 93.2786H19.7222V92.7604H33.0846V93.2786ZM19.9096 93.0912H32.8972V92.9478H19.9096V93.0912Z" fill="#37AFFF"/>
<path d="M33.0846 96.0103H19.7222V95.4921H33.0846V96.0103ZM19.9096 95.8229H32.8972V95.6795H19.9096V95.8229Z" fill="#37AFFF"/>
<path d="M33.0846 98.7424H19.7222V98.2241H33.0846V98.7424ZM19.9096 98.555H32.8972V98.4116H19.9096V98.555Z" fill="#37AFFF"/>
<path d="M33.0846 101.474H19.7222V100.956H33.0846V101.474ZM19.9096 101.287H32.8972V101.143H19.9096V101.287Z" fill="#37AFFF"/>
<path d="M33.0846 104.207H19.7222V103.689H33.0846V104.207ZM19.9096 104.02H32.8972V103.876H19.9096V104.02Z" fill="#37AFFF"/>
<path d="M33.0846 106.939H19.7222V106.421H33.0846V106.939ZM19.9096 106.752H32.8972V106.608H19.9096V106.752Z" fill="#37AFFF"/>
<path d="M33.0846 109.671H19.7222V109.153H33.0846V109.671ZM19.9096 109.483H32.8972V109.34H19.9096V109.483Z" fill="#37AFFF"/>
<path d="M33.0846 112.403H19.7222V111.885H33.0846V112.403ZM19.9096 112.215H32.8972V112.072H19.9096V112.215Z" fill="#37AFFF"/>
<path d="M33.0846 115.135H19.7222V114.617H33.0846V115.135ZM19.9096 114.947H32.8972V114.804H19.9096V114.947Z" fill="#37AFFF"/>
<path d="M26.6613 117.702H26.1431V62.5818H26.6613V117.701V117.702ZM26.3305 117.514H26.4739V62.7692H26.3305V117.513V117.514Z" fill="#37AFFF"/>
<path d="M24.8112 117.702H24.293V62.5818H24.8112V117.701V117.702ZM24.4804 117.514H24.6238V62.7692H24.4804V117.513V117.514Z" fill="#37AFFF"/>
<path d="M22.9607 117.702H22.4424V62.5818H22.9607V117.701V117.702ZM22.6298 117.514H22.7732V62.7692H22.6298V117.513V117.514Z" fill="#37AFFF"/>
<path d="M21.1091 117.702H20.5908V62.5818H21.1091V117.701V117.702ZM20.7783 117.514H20.9217V62.7692H20.7783V117.513V117.514Z" fill="#37AFFF"/>
<path d="M28.4245 117.702H27.9062V62.5818H28.4245V117.701V117.702ZM28.0937 117.514H28.2371V62.7692H28.0937V117.513V117.514Z" fill="#37AFFF"/>
<path d="M30.2746 117.702H29.7563V62.5818H30.2746V117.701V117.702ZM29.9438 117.514H30.0872V62.7692H29.9438V117.513V117.514Z" fill="#37AFFF"/>
<path d="M32.1262 117.702H31.6079V62.5818H32.1262V117.701V117.702ZM31.7953 117.514H31.9387V62.7692H31.7953V117.513V117.514Z" fill="#37AFFF"/>
<path d="M27.7565 72.428H25.2261V69.8976H27.7565V72.428ZM25.4135 72.2406H27.569V70.085H25.4135V72.2406Z" fill="#37AFFF"/>
<path d="M27.7565 91.4651H25.2261V88.9347H27.7565V91.4651ZM25.4135 91.2777H27.569V89.1221H25.4135V91.2777Z" fill="#37AFFF"/>
<path d="M27.7565 110.413H25.2261V107.883H27.7565V110.413ZM25.4135 110.226H27.569V108.07H25.4135V110.226Z" fill="#37AFFF"/>
<g style="mix-blend-mode:multiply" opacity="0.3">
<path d="M38.8129 124.093H14.1704V43.6881H25.8075V43.6685H27.0006V43.6881H38.8138V124.092L38.8129 124.093ZM14.3578 123.906H38.6255V43.8756H26.8122V43.8559H25.994V43.8756H14.3569V123.905L14.3578 123.906Z" fill="#37AFFF"/>
</g>
<path d="M26.7279 123.747H1.9917L2.00764 123.404C2.14259 120.526 4.50337 118.273 7.38242 118.273C8.66262 118.273 9.8819 118.721 10.8491 119.542C11.8097 118.722 13.028 118.273 14.3139 118.273C15.5997 118.273 16.8443 118.735 17.8227 119.578C18.7983 118.735 20.0336 118.273 21.3344 118.273C24.2087 118.273 26.5704 120.526 26.711 123.404L26.7279 123.748V123.747ZM2.69179 123.091H26.0269C25.741 120.731 23.743 118.929 21.3344 118.929C20.102 118.929 18.9361 119.4 18.0514 120.257L17.8236 120.477L17.5959 120.257C16.7084 119.4 15.5425 118.928 14.3148 118.928C13.0871 118.928 11.9465 119.386 11.0778 120.218L10.8519 120.435L10.6251 120.219C9.7479 119.386 8.59702 118.928 7.38336 118.928C4.97103 118.928 2.97387 120.73 2.69272 123.09L2.69179 123.091Z" fill="#37AFFF"/>
<path d="M96.9725 123.717H72.2363L72.2523 123.374C72.3872 120.497 74.748 118.244 77.627 118.244C78.9072 118.244 80.1265 118.692 81.0937 119.513C82.0543 118.693 83.2727 118.244 84.5585 118.244C85.8443 118.244 87.0889 118.705 88.0673 119.549C89.043 118.705 90.2782 118.244 91.579 118.244C94.4534 118.244 96.8151 120.497 96.9557 123.374L96.9725 123.718V123.717ZM72.9364 123.061H96.2715C95.9857 120.702 93.9876 118.899 91.579 118.899C90.3466 118.899 89.1807 119.371 88.296 120.227L88.0683 120.448L87.8405 120.227C86.953 119.371 85.7872 118.898 84.5594 118.898C83.3317 118.898 82.1912 119.357 81.3224 120.189L81.0965 120.405L80.8697 120.19C79.9925 119.357 78.8416 118.898 77.628 118.898C75.2157 118.898 73.2185 120.701 72.9373 123.06L72.9364 123.061Z" fill="#37AFFF"/>
<path d="M76.1693 123.747H51.4331L51.449 123.404C51.584 120.526 53.9448 118.273 56.8238 118.273C58.104 118.273 59.3233 118.721 60.2905 119.542C61.2511 118.722 62.4695 118.273 63.7553 118.273C65.0411 118.273 66.2857 118.735 67.2641 119.578C68.2397 118.735 69.4749 118.273 70.7758 118.273C73.6501 118.273 76.0119 120.526 76.1524 123.404L76.1693 123.748V123.747ZM52.1332 123.091H75.4683C75.1824 120.731 73.1843 118.929 70.7758 118.929C69.5434 118.929 68.3775 119.4 67.4928 120.257L67.2651 120.477L67.0373 120.257C66.1498 119.4 64.9839 118.928 63.7562 118.928C62.5285 118.928 61.3879 119.386 60.5192 120.218L60.2933 120.435L60.0665 120.219C59.1893 119.386 58.0384 118.928 56.8248 118.928C54.4124 118.928 52.4153 120.73 52.1341 123.09L52.1332 123.091Z" fill="#37AFFF"/>
<path d="M82.5443 123.795H70.2915L70.3084 123.452C70.3815 121.981 71.5933 120.83 73.0656 120.83C73.6729 120.83 74.254 121.027 74.7291 121.389C75.2033 121.027 75.7844 120.83 76.3954 120.83C77.0065 120.83 77.6035 121.032 78.0805 121.402C78.5594 121.032 79.1489 120.83 79.7693 120.83C81.2435 120.83 82.4553 121.982 82.5265 123.452L82.5434 123.796L82.5443 123.795ZM71.0094 123.139H81.8274C81.6221 122.189 80.7768 121.485 79.7703 121.485C79.2183 121.485 78.699 121.693 78.3092 122.07L78.0805 122.291L77.8527 122.07C77.4648 121.693 76.9474 121.485 76.3964 121.485C75.8453 121.485 75.342 121.688 74.9559 122.055L74.73 122.271L74.5032 122.056C74.1152 121.688 73.6045 121.485 73.0656 121.485C72.0609 121.485 71.2156 122.188 71.0094 123.139Z" fill="#37AFFF"/>
<path d="M73.1421 123.785H61.6362L61.6522 123.441C61.7984 120.373 64.3175 117.969 67.3878 117.969C70.458 117.969 72.9781 120.373 73.1253 123.441L73.1421 123.785ZM62.3354 123.129H72.442C72.1487 120.577 69.9913 118.626 67.3878 118.626C64.7843 118.626 62.6278 120.578 62.3354 123.129Z" fill="#37AFFF"/>
<path d="M72.8468 123.504H67.3408V118.251H67.3877C70.307 118.251 72.7044 120.537 72.8449 123.455L72.8478 123.504H72.8468ZM67.4345 123.41H72.7484C72.5872 120.581 70.2667 118.368 67.4345 118.345V123.41Z" fill="#37AFFF"/>
<path d="M27.7333 123.824H15.4805L15.4974 123.48C15.5705 122.01 16.7813 120.859 18.2546 120.859C18.8619 120.859 19.4429 121.056 19.9181 121.418C20.3923 121.056 20.9734 120.859 21.5853 120.859C22.1973 120.859 22.7934 121.061 23.2704 121.431C23.7493 121.061 24.3388 120.859 24.9592 120.859C26.4334 120.859 27.6452 122.011 27.7164 123.48L27.7333 123.824ZM16.1984 123.168H27.0164C26.8111 122.218 25.9658 121.514 24.9592 121.514C24.4072 121.514 23.888 121.722 23.4981 122.099L23.2695 122.32L23.0417 122.099C22.6537 121.722 22.1364 121.514 21.5853 121.514C21.0343 121.514 20.531 121.717 20.1449 122.084L19.919 122.3L19.6932 122.085C19.3052 121.717 18.7944 121.514 18.2555 121.514C17.2508 121.514 16.4055 122.217 16.1993 123.168H16.1984Z" fill="#37AFFF"/>
<path d="M79.3661 123.824H67.1133L67.1301 123.48C67.2032 122.01 68.4141 120.859 69.8874 120.859C70.4946 120.859 71.0757 121.056 71.5509 121.418C72.0251 121.056 72.6061 120.859 73.2181 120.859C73.8301 120.859 74.4262 121.061 74.9032 121.431C75.3821 121.061 75.9716 120.859 76.592 120.859C78.0662 120.859 79.278 122.011 79.3492 123.481L79.3661 123.825V123.824ZM67.8312 123.168H78.6482C78.443 122.218 77.5976 121.514 76.5911 121.514C76.0391 121.514 75.5199 121.722 75.13 122.099L74.9013 122.32L74.6736 122.099C74.2856 121.722 73.7683 121.514 73.2172 121.514C72.6661 121.514 72.1629 121.717 71.7767 122.084L71.5509 122.3L71.325 122.085C70.937 121.717 70.4262 121.514 69.8874 121.514C68.8827 121.514 68.0373 122.217 67.8312 123.168Z" fill="#37AFFF"/>
<path d="M56.0682 123.543H44.4058L44.4086 123.494C44.4742 122.174 45.5622 121.14 46.8846 121.14C47.505 121.14 48.0945 121.368 48.5481 121.784C48.9999 121.369 49.5903 121.14 50.2145 121.14C50.8386 121.14 51.445 121.374 51.8995 121.799C52.3559 121.374 52.9539 121.14 53.5883 121.14C54.9126 121.14 56.0007 122.174 56.0644 123.494L56.0672 123.543H56.0682ZM44.5051 123.449H55.9688C55.8826 122.203 54.847 121.233 53.5893 121.233C52.9642 121.233 52.3756 121.469 51.9323 121.897L51.8995 121.928L51.8667 121.897C51.4253 121.468 50.8386 121.233 50.2145 121.233C49.5903 121.233 49.0186 121.464 48.58 121.881L48.5481 121.912L48.5163 121.881C48.0758 121.463 47.4957 121.233 46.8846 121.233C45.6288 121.233 44.5923 122.202 44.5051 123.449Z" fill="#37AFFF"/>
</svg>
